<?xml version="1.0" encoding="UTF-8"?>
<svg version="1.1" xmlns="http://www.w3.org/2000/svg" width="460" height="460">
<path d="M0 0 C151.8 0 303.6 0 460 0 C460 151.8 460 303.6 460 460 C308.2 460 156.4 460 0 460 C0 308.2 0 156.4 0 0 Z " fill="#000E24" transform="translate(0,0)"/>
<path d="M0 0 C1.18980469 -0.01611328 2.37960938 -0.03222656 3.60546875 -0.04882812 C11.44800132 -0.05316102 18.86854832 0.08859687 25.125 5.28515625 C25.929375 6.31962891 25.929375 6.31962891 26.75 7.375 C27.306875 8.06722656 27.86375 8.75945312 28.4375 9.47265625 C30.7331212 12.69062526 31.33003483 15.37940517 31.28515625 19.3671875 C29.44384454 29.50112203 22.23761143 39.34653344 16.82421875 47.88671875 C14.37784595 51.83259487 12.26159666 55.94323112 10.125 60.0625 C7.43604096 65.23666619 4.65236332 70.14326847 1.31640625 74.93359375 C-2.04952394 80.04544284 -4.90374386 85.48882199 -7.87402344 90.83740234 C-10.54887491 95.6489077 -13.24082687 100.45069901 -15.9375 105.25 C-16.47189697 106.2085791 -17.00629395 107.1671582 -17.55688477 108.15478516 C-20.46130053 113.32088398 -23.52353186 118.28713625 -26.85424805 123.18774414 C-29.05189658 126.53322869 -30.92197035 130.03745415 -32.8125 133.5625 C-38.95584598 144.82270276 -45.74485553 155.69098179 -52.64648438 166.49951172 C-55.06436281 170.3055983 -57.20959896 174.09602203 -59.125 178.1875 C-61.49550734 183.02527008 -64.21501722 187.25425694 -67.3828125 191.59765625 C-70.36699141 195.93657747 -72.88188981 200.5210552 -75.453125 205.11328125 C-77.0066569 207.87924349 -78.61046416 210.59714282 -80.25 213.3125 C-82.116867 216.45095278 -83.96662835 219.59916258 -85.8125 222.75 C-86.30685547 223.58337891 -86.80121094 224.41675781 -87.31054688 225.27539062 C-91.93507079 233.19152425 -94.61247381 240.02838642 -93.25 249.3125 C-90.06580074 258.40049931 -84.99931165 265.82143229 -76.5625 270.625 C-66.74537648 274.88824479 -55.76413711 274.60487141 -45.26098633 274.58374023 C-43.79600234 274.58813848 -42.33102084 274.59344458 -40.86604309 274.59957886 C-37.73632599 274.61099073 -34.60667579 274.61653169 -31.47693825 274.61746025 C-26.52091562 274.61941695 -21.56502977 274.63755463 -16.60905457 274.65821838 C-4.30701463 274.70717797 7.99506188 274.73829336 20.29718018 274.75952148 C29.87695454 274.77607105 39.45660971 274.79893271 49.0363043 274.84254223 C53.9562662 274.86423361 58.87600111 274.87238463 63.79600751 274.87014949 C66.86118333 274.87182303 69.92621217 274.88591176 72.99133492 274.90336227 C74.40499166 274.9089328 75.81867925 274.90947391 77.23233795 274.90442467 C86.10772064 274.87606174 94.32016527 274.86707299 101.5625 280.5 C105.36723847 285.3918066 108.63045608 290.46261419 108.26171875 296.921875 C105.44024848 310.10309489 97.82992065 321.38440462 87.375 329.62109375 C79.26022499 334.84981038 72.21459044 334.75941316 62.72119141 334.74829102 C61.19110378 334.75727685 59.66102294 334.76748698 58.13095093 334.77882385 C53.9856915 334.80526022 49.84061805 334.81235506 45.69528246 334.81427121 C43.09785457 334.8164093 40.50047335 334.82282502 37.9030571 334.83076286 C28.81896743 334.85850666 19.73500953 334.87077101 10.65087891 334.8684082 C2.22172471 334.86661134 -6.20685011 334.89816203 -14.63585794 334.94563919 C-21.89992613 334.98507647 -29.1638068 335.00095089 -36.42798102 334.99904197 C-40.75405799 334.99828247 -45.07962098 335.00652764 -49.40559006 335.03857613 C-84.04838405 335.27725382 -84.04838405 335.27725382 -97.25 328.3125 C-97.91567867 327.9649724 -98.58135735 327.6174448 -99.2672081 327.25938606 C-108.83487848 322.21783656 -116.68527522 316.00570711 -124.25 308.3125 C-125.17425781 307.38695312 -126.09851563 306.46140625 -127.05078125 305.5078125 C-140.77199366 291.18496277 -154.3046282 272.78343555 -155.25 252.3125 C-155.32476562 251.28769531 -155.39953125 250.26289063 -155.4765625 249.20703125 C-156.16363951 232.91607371 -148.33801653 218.20655197 -139.35546875 205.01953125 C-136.05312175 200.12745339 -133.27149433 195.01858365 -130.5 189.8125 C-124.55778167 178.78779248 -118.30485242 167.98495882 -111.8046875 157.28125 C-107.05398519 149.50161602 -107.05398519 149.50161602 -102.8125 141.4375 C-98.05183223 131.58784255 -92.25836007 122.12948925 -86.0625 113.125 C-83.222708 108.96795508 -80.86461002 104.71868625 -78.6875 100.1875 C-76.20602841 95.05613114 -73.4644766 90.55768638 -70.09375 85.9765625 C-66.41939669 80.66743335 -63.37975499 74.95418822 -60.25 69.3125 C-59.59 69.3125 -58.93 69.3125 -58.25 69.3125 C-58.146875 68.61125 -58.04375 67.91 -57.9375 67.1875 C-56.62063838 61.68062414 -53.48050488 56.82375043 -50.6875 51.9375 C-49.78837891 50.34808594 -49.78837891 50.34808594 -48.87109375 48.7265625 C-48.06865234 47.53160156 -48.06865234 47.53160156 -47.25 46.3125 C-46.59 46.3125 -45.93 46.3125 -45.25 46.3125 C-44.940625 45.136875 -44.940625 45.136875 -44.625 43.9375 C-43.1549491 40.06191126 -41.26615293 36.87126756 -39.08984375 33.359375 C-37.28898355 30.37705874 -35.59674352 27.35397342 -33.91699219 24.30273438 C-24.37166795 7.00133496 -24.37166795 7.00133496 -18.25 4.3125 C-18.25 3.6525 -18.25 2.9925 -18.25 2.3125 C-12.27267292 -0.45383781 -6.47581247 -0.01731501 0 0 Z " fill="#0AD5C5" transform="translate(253.25,56.6875)"/>
<path d="M0 0 C4.18942907 4.78791894 6.72816626 9.99454324 7.875 16.25 C7.07775411 27.18998525 -0.44595741 39.43640739 -8.234375 46.78515625 C-18.05267957 54.98195294 -25.26110473 55.95052955 -37.84130859 55.93579102 C-39.37139622 55.94477685 -40.90147706 55.95498698 -42.43154907 55.96632385 C-46.5768085 55.99276022 -50.72188195 55.99985506 -54.86721754 56.00177121 C-57.46464543 56.0039093 -60.06202665 56.01032502 -62.6594429 56.01826286 C-71.74353257 56.04600666 -80.82749047 56.05827101 -89.91162109 56.0559082 C-98.34077529 56.05411134 -106.76935011 56.08566203 -115.19835794 56.13313919 C-122.46242613 56.17257647 -129.7263068 56.18845089 -136.99048102 56.18654197 C-141.31655799 56.18578247 -145.64212098 56.19402764 -149.96809006 56.22607613 C-184.39980513 56.46371022 -184.39980513 56.46371022 -197.8125 49.5 C-199.0471978 48.91439301 -199.0471978 48.91439301 -200.30683899 48.31695557 C-202.40234375 47.26171875 -202.40234375 47.26171875 -205.75 45.1875 C-206.65310913 44.62881226 -206.65310913 44.62881226 -207.57446289 44.05883789 C-213.20161108 40.47015282 -218.08178468 36.20845313 -222.8125 31.5 C-221.4925 30.84 -220.1725 30.18 -218.8125 29.5 C-218.4721875 30.428125 -218.4721875 30.428125 -218.125 31.375 C-216.41641383 34.14128237 -214.81257779 34.40241056 -211.8125 35.5 C-210.8125 36.5 -209.8125 37.5 -208.8125 38.5 C-206.91071215 39.10061233 -206.91071215 39.10061233 -204.8125 39.5 C-201.82107046 40.56836769 -200.07513406 41.23736594 -197.8125 43.5 C-195.24188689 44.14767793 -195.24188689 44.14767793 -192.8125 44.5 C-192.8125 45.16 -192.8125 45.82 -192.8125 46.5 C-192.1525 46.5 -191.4925 46.5 -190.8125 46.5 C-190.4825 47.16 -190.1525 47.82 -189.8125 48.5 C-189.008125 48.479375 -188.20375 48.45875 -187.375 48.4375 C-184.8125 48.5 -184.8125 48.5 -183.8125 49.5 C-182.69875 49.5 -181.585 49.5 -180.4375 49.5 C-176.8125 49.5 -176.8125 49.5 -173.8125 50.5 C-172.8225 49.84 -171.8325 49.18 -170.8125 48.5 C-171.4725 50.15 -172.1325 51.8 -172.8125 53.5 C-172.1525 53.5 -171.4925 53.5 -170.8125 53.5 C-170.8125 52.84 -170.8125 52.18 -170.8125 51.5 C-169.55953125 51.56960938 -168.3065625 51.63921875 -167.015625 51.7109375 C-165.36463698 51.76722118 -163.71359093 51.82182069 -162.0625 51.875 C-161.2375 51.92527344 -160.4125 51.97554688 -159.5625 52.02734375 C-157.17134683 52.08519423 -155.13713284 52.07380178 -152.8125 51.5 C-150.37761696 48.59926731 -150.37761696 48.59926731 -148.8125 45.5 C-147.8225 45.5 -146.8325 45.5 -145.8125 45.5 C-144.8125 50.375 -144.8125 50.375 -144.8125 51.5 C-143.53084961 51.49476318 -142.24919922 51.48952637 -140.92871094 51.48413086 C-136.17269591 51.46602793 -131.41668392 51.45454858 -126.66064453 51.44506836 C-124.60237109 51.44004027 -122.54410122 51.43321694 -120.48583984 51.42456055 C-117.52700926 51.41242834 -114.56822592 51.40675643 -111.609375 51.40234375 C-110.68944763 51.39718246 -109.76952026 51.39202118 -108.82171631 51.38670349 C-107.9611261 51.38662796 -107.10053589 51.38655243 -106.21386719 51.38647461 C-105.45885925 51.384254 -104.70385132 51.38203339 -103.92596436 51.37974548 C-101.77077877 51.50237391 -99.89725751 51.96431931 -97.8125 52.5 C-95.99854352 52.40151718 -94.18758873 52.23842078 -92.3828125 52.03125 C-85.75868655 51.40325629 -79.32080403 51.62885085 -72.6875 52 C-70.47681888 52.1194276 -68.26588301 52.23425844 -66.0546875 52.34375 C-65.0941748 52.39724609 -64.13366211 52.45074219 -63.14404297 52.50585938 C-60.78739018 52.67284693 -60.78739018 52.67284693 -58.8125 51.5 C-56.68056087 51.43829276 -54.54664688 51.44015889 -52.4140625 51.47265625 C-50.48820312 51.49102539 -50.48820312 51.49102539 -48.5234375 51.50976562 C-46.48037859 51.53455526 -44.43746747 51.56250053 -42.39453125 51.59594727 C-40.42199136 51.62623167 -38.44926331 51.64335469 -36.4765625 51.66015625 C-35.29529785 51.67699463 -34.1140332 51.69383301 -32.89697266 51.71118164 C-29.87307904 51.50414761 -28.41487062 50.9061718 -25.8125 49.5 C-24.843125 49.685625 -23.87375 49.87125 -22.875 50.0625 C-19.77585422 50.78194815 -19.77585422 50.78194815 -17 49.25 C-14.548591 47.61369179 -14.548591 47.61369179 -13.8125 44.5 C-12.8225 43.84 -11.8325 43.18 -10.8125 42.5 C-10.338125 41.654375 -9.86375 40.80875 -9.375 39.9375 C-7.8125 37.5 -7.8125 37.5 -5.625 36.6875 C-5.026875 36.625625 -4.42875 36.56375 -3.8125 36.5 C-3.4825 34.52 -3.1525 32.54 -2.8125 30.5 C-3.1425 30.83 -3.4725 31.16 -3.8125 31.5 C-4.4725 30.84 -5.1325 30.18 -5.8125 29.5 C-5.8125 28.18 -5.8125 26.86 -5.8125 25.5 C-4.8225 25.005 -4.8225 25.005 -3.8125 24.5 C-3.16036708 22.47536745 -3.16036708 22.47536745 -2.8125 20.5 C-4.4625 20.83 -6.1125 21.16 -7.8125 21.5 C-8.8025 18.53 -8.8025 18.53 -9.8125 15.5 C-6.8125 16.5 -6.8125 16.5 -5.8125 18.5 C-4.884375 17.84 -3.95625 17.18 -3 16.5 C0.1875 14.5 0.1875 14.5 3.1875 14.5 C3.5175 13.51 3.8475 12.52 4.1875 11.5 C1.28149739 10.24335022 -0.60854584 9.5 -3.8125 9.5 C-3.8125 8.18 -3.8125 6.86 -3.8125 5.5 C-4.575625 5.396875 -5.33875 5.29375 -6.125 5.1875 C-8.98309424 4.45635961 -9.96992885 3.73048087 -11.8125 1.5 C-12.225 1.974375 -12.6375 2.44875 -13.0625 2.9375 C-14.994685 4.66266518 -16.29442275 5.06584875 -18.8125 5.5 C-18.4825 3.85 -18.1525 2.2 -17.8125 0.5 C-20.67028033 -0.18493373 -20.67028033 -0.18493373 -23.8125 -0.5 C-24.8025 0.16 -25.7925 0.82 -26.8125 1.5 C-26.8125 0.84 -26.8125 0.18 -26.8125 -0.5 C-27.4725 -0.5 -28.1325 -0.5 -28.8125 -0.5 C-29.1425 0.16 -29.4725 0.82 -29.8125 1.5 C-30.1425 0.84 -30.4725 0.18 -30.8125 -0.5 C-31.8025 -0.5 -32.7925 -0.5 -33.8125 -0.5 C-34.4725 0.49 -35.1325 1.48 -35.8125 2.5 C-36.8025 1.51 -36.8025 1.51 -37.8125 0.5 C-40.25262949 0.25712511 -40.25262949 0.25712511 -42.9375 0.375 C-43.84757813 0.39304687 -44.75765625 0.41109375 -45.6953125 0.4296875 C-46.39398438 0.45289063 -47.09265625 0.47609375 -47.8125 0.5 C-47.8125 0.17 -47.8125 -0.16 -47.8125 -0.5 C-54.2475 -0.995 -54.2475 -0.995 -60.8125 -1.5 C-60.8125 -1.83 -60.8125 -2.16 -60.8125 -2.5 C-54.16003985 -2.69492228 -47.50727023 -2.87200163 -40.85400391 -3.03710938 C-38.59413078 -3.09524531 -36.33435606 -3.1573559 -34.07470703 -3.22363281 C-30.81300802 -3.31859185 -27.55121393 -3.39890488 -24.2890625 -3.4765625 C-23.29073395 -3.50875885 -22.2924054 -3.5409552 -21.26382446 -3.5741272 C-13.96345005 -3.72748643 -6.55880983 -3.49803191 0 0 Z " fill="#29CB88" transform="translate(353.8125,335.5)"/>
<path d="M0 0 C1.17949219 0.00193359 2.35898438 0.00386719 3.57421875 0.00585938 C4.79753906 0.01810547 6.02085937 0.03035156 7.28125 0.04296875 C8.50457031 0.04361328 9.72789062 0.04425781 10.98828125 0.04492188 C20.87750469 0.0935574 20.87750469 0.0935574 25.78125 1.23046875 C25.78125 1.56046875 25.78125 1.89046875 25.78125 2.23046875 C23.82832031 2.32134766 23.82832031 2.32134766 21.8359375 2.4140625 C20.10936601 2.49851437 18.382804 2.58316001 16.65625 2.66796875 C15.8003125 2.70728516 14.944375 2.74660156 14.0625 2.78710938 C9.55591677 3.01243854 5.23070035 3.44170255 0.78125 4.23046875 C-0.25 4.18921875 -1.28125 4.14796875 -2.34375 4.10546875 C-5.80896337 4.2561302 -6.68166415 4.9312347 -9.21875 7.23046875 C-10.25 8.03484375 -11.28125 8.83921875 -12.34375 9.66796875 C-15.01682736 12.05049423 -15.80901366 13.12789329 -17.21875 16.23046875 C-17.57195312 16.91367188 -17.92515625 17.596875 -18.2890625 18.30078125 C-18.63710937 18.97882813 -18.98515625 19.656875 -19.34375 20.35546875 C-19.69695312 21.03867188 -20.05015625 21.721875 -20.4140625 22.42578125 C-21.35449624 24.20558263 -21.35449624 24.20558263 -21.21875 26.23046875 C-22.0025 26.93171875 -22.78625 27.63296875 -23.59375 28.35546875 C-26.16630832 31.17303262 -26.61490821 31.97448842 -27.34375 35.48046875 C-27.6325 36.71796875 -27.92125 37.95546875 -28.21875 39.23046875 C-29.70375 39.72546875 -29.70375 39.72546875 -31.21875 40.23046875 C-32.33560196 42.06227 -32.33560196 42.06227 -33.21875 44.23046875 C-33.57195312 44.90207031 -33.92515625 45.57367188 -34.2890625 46.265625 C-34.81113281 47.26916016 -34.81113281 47.26916016 -35.34375 48.29296875 C-35.69695312 48.96457031 -36.05015625 49.63617188 -36.4140625 50.328125 C-37.41353915 52.34670964 -37.41353915 52.34670964 -37.21875 55.23046875 C-38.83977968 56.94155564 -40.51378463 58.60300181 -42.21875 60.23046875 C-43.57430293 61.8791142 -44.91506653 63.5405087 -46.21875 65.23046875 C-45.22875 65.72546875 -45.22875 65.72546875 -44.21875 66.23046875 C-44.693125 66.68421875 -45.1675 67.13796875 -45.65625 67.60546875 C-47.30902808 69.16305079 -47.30902808 69.16305079 -48.21875 71.23046875 C-48.87875 71.23046875 -49.53875 71.23046875 -50.21875 71.23046875 C-50.30125 71.93171875 -50.38375 72.63296875 -50.46875 73.35546875 C-51.39884005 76.92081395 -52.98561369 79.32062447 -55.21875 82.23046875 C-55.87875 82.23046875 -56.53875 82.23046875 -57.21875 82.23046875 C-57.321875 82.95234375 -57.425 83.67421875 -57.53125 84.41796875 C-58.2921249 87.53063881 -59.52439875 89.51870563 -61.21875 92.23046875 C-62.26189264 93.93790123 -63.30357069 95.64622938 -64.34375 97.35546875 C-65.12105469 98.62777344 -65.12105469 98.62777344 -65.9140625 99.92578125 C-67.33881361 102.27037983 -67.33881361 102.27037983 -68.21875 105.23046875 C-70.28125 106.91796875 -70.28125 106.91796875 -72.21875 108.23046875 C-71.88875 109.22046875 -71.55875 110.21046875 -71.21875 111.23046875 C-71.87875 111.23046875 -72.53875 111.23046875 -73.21875 111.23046875 C-73.21875 111.89046875 -73.21875 112.55046875 -73.21875 113.23046875 C-74.70375 114.22046875 -74.70375 114.22046875 -76.21875 115.23046875 C-78.44795725 118.82596432 -80.36052522 122.49636048 -82.21875 126.29296875 C-84.48463962 130.85119807 -86.59998615 135.0460074 -90.78125 138.10546875 C-94.19614835 141.08255962 -94.86098655 143.9427947 -96.21875 148.23046875 C-96.87875 148.23046875 -97.53875 148.23046875 -98.21875 148.23046875 C-95.96969262 139.93706965 -91.82263167 133.43006275 -87.21875 126.23046875 C-86.170217 124.48457414 -85.12787577 122.73493543 -84.09375 120.98046875 C-82.25913679 117.89475812 -80.33297703 114.92542786 -78.28125 111.98046875 C-75.74541973 108.24936431 -73.73648737 104.34867732 -71.78125 100.29296875 C-69.28655591 95.13087099 -66.45944153 90.5112836 -63.0625 85.89453125 C-59.38814669 80.5854021 -56.34850499 74.87215697 -53.21875 69.23046875 C-52.55875 69.23046875 -51.89875 69.23046875 -51.21875 69.23046875 C-51.115625 68.52921875 -51.0125 67.82796875 -50.90625 67.10546875 C-49.58938838 61.59859289 -46.44925488 56.74171918 -43.65625 51.85546875 C-43.05683594 50.79585937 -42.45742187 49.73625 -41.83984375 48.64453125 C-41.30488281 47.84789062 -40.76992187 47.05125 -40.21875 46.23046875 C-39.55875 46.23046875 -38.89875 46.23046875 -38.21875 46.23046875 C-38.0125 45.44671875 -37.80625 44.66296875 -37.59375 43.85546875 C-36.1236991 39.97988001 -34.23490293 36.78923631 -32.05859375 33.27734375 C-30.25773355 30.29502749 -28.56549352 27.27194217 -26.88574219 24.22070312 C-17.34041795 6.91930371 -17.34041795 6.91930371 -11.21875 4.23046875 C-11.21875 3.57046875 -11.21875 2.91046875 -11.21875 2.23046875 C-7.33134825 0.41577855 -4.2753293 -0.0163695 0 0 Z " fill="#11D3DD" transform="translate(246.21875,56.76953125)"/>
<path d="M0 0 C3.79472973 0.54449764 5.27031268 2.03792388 7.6875 4.9375 C8.28949219 5.64777344 8.89148438 6.35804687 9.51171875 7.08984375 C12.00601592 10.29118579 12.58115284 12.96756202 12.53515625 17.0546875 C10.69384454 27.18862203 3.48761143 37.03403344 -1.92578125 45.57421875 C-4.37215405 49.52009487 -6.48840334 53.63073112 -8.625 57.75 C-11.31257572 62.92150436 -14.09294719 67.82697343 -17.4296875 72.61328125 C-19.48583511 75.73842103 -21.30415979 78.98479707 -23.125 82.25 C-23.4972168 82.91338379 -23.86943359 83.57676758 -24.25292969 84.26025391 C-26.55766487 88.37913126 -28.82253406 92.51774097 -31.0703125 96.66796875 C-32.12982731 98.59135577 -33.18971938 100.51453503 -34.25 102.4375 C-34.74516113 103.36788086 -35.24032227 104.29826172 -35.75048828 105.25683594 C-36.2298584 106.11954102 -36.70922852 106.98224609 -37.203125 107.87109375 C-37.62239258 108.64380615 -38.04166016 109.41651855 -38.47363281 110.21264648 C-40.46470634 112.54416428 -42.01497824 112.68939977 -45 113 C-45.24954005 111.56589632 -45.47392642 110.12739928 -45.6875 108.6875 C-45.81511719 107.88699219 -45.94273437 107.08648437 -46.07421875 106.26171875 C-46 104 -46 104 -44.76953125 102.20703125 C-43 101 -43 101 -39 101 C-38.566875 100.0409375 -38.566875 100.0409375 -38.125 99.0625 C-37 97 -37 97 -35 96 C-33.78053076 93.80789384 -32.65293077 91.62994601 -31.5625 89.375 C-31.26279297 88.77042969 -30.96308594 88.16585937 -30.65429688 87.54296875 C-29.13432396 84.45026898 -27.70794899 81.34139004 -26.3828125 78.16015625 C-25.16311948 75.3727787 -24.32322704 73.8807076 -22 72 C-23.98 72.495 -23.98 72.495 -26 73 C-26.495 72.01 -26.495 72.01 -27 71 C-25.515 70.505 -25.515 70.505 -24 70 C-22.77479736 66.99152582 -22.77479736 66.99152582 -22 64 C-20.68 64.33 -19.36 64.66 -18 65 C-17.34 64.01 -16.68 63.02 -16 62 C-15.34 62 -14.68 62 -14 62 C-14 60.35 -14 58.7 -14 57 C-13.34 56.67 -12.68 56.34 -12 56 C-11.67 55.01 -11.34 54.02 -11 53 C-11.66 53 -12.32 53 -13 53 C-13 52.34 -13 51.68 -13 51 C-13.99 50.505 -13.99 50.505 -15 50 C-12.36 49.67 -9.72 49.34 -7 49 C-7.2784375 47.329375 -7.2784375 47.329375 -7.5625 45.625 C-8 42 -8 42 -7 40 C-6.34 40 -5.68 40 -5 40 C-4.67 39.01 -4.34 38.02 -4 37 C-3.01 36.67 -2.02 36.34 -1 36 C-0.8453125 34.9171875 -0.8453125 34.9171875 -0.6875 33.8125 C0.43798982 29.20822347 2.71877532 26.28122468 6 23 C8.88136486 19.6041057 9.20486587 17.12766084 8.9375 12.8125 C8.81621485 10.23640498 8.81621485 10.23640498 8 8 C6.03251384 6.65303404 6.03251384 6.65303404 4 6 C4 5.34 4 4.68 4 4 C3.34 4 2.68 4 2 4 C2 3.34 2 2.68 2 2 C1.34 2 0.68 2 0 2 C0 1.34 0 0.68 0 0 Z " fill="#36DCE4" transform="translate(272,59)"/>
<path d="M0 0 C0.226875 0.61875 0.45375 1.2375 0.6875 1.875 C2.39608617 4.64128237 3.99992221 4.90241056 7 6 C8 7 9 8 10 9 C11.90178785 9.60061233 11.90178785 9.60061233 14 10 C16.99142954 11.06836769 18.73736594 11.73736594 21 14 C23.57061311 14.64767793 23.57061311 14.64767793 26 15 C26 15.66 26 16.32 26 17 C26.66 17 27.32 17 28 17 C28.495 17.99 28.495 17.99 29 19 C30.2065625 18.9690625 30.2065625 18.9690625 31.4375 18.9375 C34 19 34 19 35 20 C36.11375 20 37.2275 20 38.375 20 C42 20 42 20 45 21 C45.99 20.34 46.98 19.68 48 19 C47.34 20.65 46.68 22.3 46 24 C46.66 24 47.32 24 48 24 C48 23.34 48 22.68 48 22 C49.25296875 22.06960938 50.5059375 22.13921875 51.796875 22.2109375 C53.44786302 22.26722118 55.09890907 22.32182069 56.75 22.375 C57.575 22.42527344 58.4 22.47554688 59.25 22.52734375 C61.64115317 22.58519423 63.67536716 22.57380178 66 22 C68.43488304 19.09926731 68.43488304 19.09926731 70 16 C70.99 16 71.98 16 73 16 C74 20.875 74 20.875 74 22 C75.28165039 21.99476318 76.56330078 21.98952637 77.88378906 21.98413086 C82.63980409 21.96602793 87.39581608 21.95454858 92.15185547 21.94506836 C94.21012891 21.94004027 96.26839878 21.93321694 98.32666016 21.92456055 C101.28549074 21.91242834 104.24427408 21.90675643 107.203125 21.90234375 C108.12305237 21.89718246 109.04297974 21.89202118 109.99078369 21.88670349 C110.8513739 21.88662796 111.71196411 21.88655243 112.59863281 21.88647461 C113.35364075 21.884254 114.10864868 21.88203339 114.88653564 21.87974548 C117.04109694 22.00233838 118.91704512 22.45977687 121 23 C122.60877477 22.88610444 124.21355462 22.71095531 125.8125 22.5 C135.84515273 21.5105124 145.95863843 22.43718347 156 23 C156 23.66 156 24.32 156 25 C140.5266868 25.07023551 125.05338561 25.12305919 109.57995033 25.15543652 C102.39455444 25.17087279 95.20925789 25.1918999 88.02392578 25.22631836 C81.75756299 25.25632043 75.49127219 25.27559852 69.22483957 25.28226548 C65.91006117 25.28615957 62.59553534 25.29684238 59.28081131 25.31719017 C55.57071108 25.33905363 51.86103348 25.34196312 48.15087891 25.34057617 C47.06474304 25.351362 45.97860718 25.36214783 44.85955811 25.3732605 C27.94819579 25.30511582 12.52648754 16.97521974 0 6 C-1.37496867 4.36751211 -2.7222564 2.70965694 -4 1 C-2.68 0.67 -1.36 0.34 0 0 Z " fill="#3DC9AC" transform="translate(135,365)"/>
<path d="M0 0 C4.74063331 3.97601504 4.78119687 7.5322331 5.30859375 13.48046875 C5.58819638 21.52116252 4.86209986 26.73724811 0.5234375 33.55078125 C-0.93289672 35.89211857 -1.8288634 38.01677593 -2.6875 40.625 C-3.120625 41.73875 -3.55375 42.8525 -4 44 C-5.485 44.495 -5.485 44.495 -7 45 C-7.66 45.99 -8.32 46.98 -9 48 C-9.66 48 -10.32 48 -11 48 C-11 48.66 -11 49.32 -11 50 C-12.11375 50.45375 -13.2275 50.9075 -14.375 51.375 C-17.96199008 52.72465986 -17.96199008 52.72465986 -20 55 C-22.8061132 55.93394066 -25.37163223 56.12391588 -28.31536865 56.12025452 C-29.59836098 56.12231651 -29.59836098 56.12231651 -30.90727234 56.12442017 C-31.83731583 56.12082489 -32.76735931 56.11722961 -33.72558594 56.11352539 C-34.71128067 56.11367142 -35.6969754 56.11381744 -36.71253967 56.1139679 C-39.96984052 56.11327136 -43.22708415 56.10549103 -46.484375 56.09765625 C-48.74310271 56.09579115 -51.00183082 56.09436768 -53.26055908 56.09336853 C-59.20519121 56.08955059 -65.14979891 56.07972645 -71.09442139 56.06866455 C-77.16060048 56.05843491 -83.22678352 56.05386758 -89.29296875 56.04882812 C-101.19532324 56.03810356 -113.09765959 56.02103578 -125 56 C-125 55.67 -125 55.34 -125 55 C-115.30325039 53.92417015 -105.66576247 53.86401382 -95.92484665 53.86190033 C-91.11910105 53.85752918 -86.31348287 53.82644419 -81.5078125 53.80078125 C-75.42704106 53.77042596 -69.34647953 53.74768728 -63.265625 53.74951172 C-58.31727129 53.75030138 -53.36953657 53.72684383 -48.42134476 53.6876297 C-46.54844576 53.6772231 -44.6754749 53.67560597 -42.80256271 53.68328094 C-28.65471273 53.84240808 -28.65471273 53.84240808 -16 48 C-15.35340424 47.5648407 -14.70680847 47.1296814 -14.0406189 46.68133545 C-5.32031987 40.49648825 1.49292894 27.35168548 3.375 16.921875 C3.68966432 11.92657894 2.0107676 8.19926128 -0.22265625 3.8828125 C-0.47917969 3.26148438 -0.73570312 2.64015625 -1 2 C-0.67 1.34 -0.34 0.68 0 0 Z " fill="#001A15" transform="translate(357,337)"/>
<path d="M0 0 C22.77 0 45.54 0 69 0 C69 0.33 69 0.66 69 1 C92.265 1.495 92.265 1.495 116 2 C115.67 2.66 115.34 3.32 115 4 C77.05 4 39.1 4 0 4 C0 2.66666667 0 1.33333333 0 0 Z " fill="#041C27" transform="translate(175,391)"/>
<path d="M0 0 C0.66 0 1.32 0 2 0 C0.58336018 4.50749034 -1.53191898 6.83349125 -5 10 C-5.61359375 10.58265625 -6.2271875 11.1653125 -6.859375 11.765625 C-7.52453125 12.37921875 -8.1896875 12.9928125 -8.875 13.625 C-9.49117187 14.19476563 -10.10734375 14.76453125 -10.7421875 15.3515625 C-15.89769313 19.11561678 -20.51918807 20.37584919 -26.84007263 20.36076355 C-27.49125488 20.36332682 -28.14243713 20.3658901 -28.81335217 20.36853105 C-30.97535547 20.3734364 -33.13664603 20.35703118 -35.29858398 20.34057617 C-36.85624678 20.33972919 -38.41391077 20.34020643 -39.97157288 20.34190369 C-44.18600575 20.3427623 -48.40018101 20.3251584 -52.61455417 20.30418181 C-57.02411505 20.28539255 -61.43368224 20.2836628 -65.84327698 20.28010559 C-74.18710253 20.27079173 -82.53080978 20.24618688 -90.8745833 20.21605712 C-100.37636193 20.18249259 -109.8781463 20.16602194 -119.37996948 20.15097082 C-138.92004666 20.11963673 -158.46001381 20.06688906 -178 20 C-178 19.67 -178 19.34 -178 19 C-177.39554676 18.99668985 -176.79109352 18.99337971 -176.16832352 18.98996925 C-161.46259513 18.90875909 -146.75696269 18.81667313 -132.05138016 18.71247292 C-124.93987429 18.66234495 -117.82837996 18.61590208 -110.71679688 18.578125 C-103.8567799 18.54167392 -96.99689436 18.49496602 -90.13698578 18.44193649 C-87.51669253 18.42336999 -84.89637241 18.40827043 -82.27603912 18.39665604 C-78.61260581 18.37983243 -74.94946092 18.35080618 -71.28613281 18.31884766 C-69.65262375 18.31560738 -69.65262375 18.31560738 -67.9861145 18.31230164 C-66.98774567 18.30113815 -65.98937683 18.28997467 -64.96075439 18.2784729 C-64.09426899 18.27294214 -63.22778358 18.26741138 -62.33504105 18.26171303 C-59.80246484 17.97786012 -58.23298841 17.18111598 -56 16 C-52.94726562 15.8046875 -52.94726562 15.8046875 -49.40625 15.875 C-48.12878906 15.89046875 -46.85132813 15.9059375 -45.53515625 15.921875 C-43.51410772 15.9592381 -41.4931481 16.00013859 -39.47216797 16.04101562 C-37.51283013 16.07723788 -35.55327897 16.1012721 -33.59375 16.125 C-31.84094727 16.15980469 -31.84094727 16.15980469 -30.05273438 16.1953125 C-27.03908444 16.0025006 -25.5938837 15.40132637 -23 14 C-22.030625 14.185625 -21.06125 14.37125 -20.0625 14.5625 C-16.96335422 15.28194815 -16.96335422 15.28194815 -14.1875 13.75 C-11.736091 12.11369179 -11.736091 12.11369179 -11 9 C-9.35 9 -7.7 9 -6 9 C-5.62875 7.824375 -5.62875 7.824375 -5.25 6.625 C-3.84610901 3.67682892 -2.99324263 3.0975223 0 2 C0 1.34 0 0.68 0 0 Z " fill="#57B599" transform="translate(351,371)"/>
<path d="M0 0 C0.86882812 0.01417969 1.73765625 0.02835937 2.6328125 0.04296875 C3.49648437 0.04941406 4.36015625 0.05585938 5.25 0.0625 C7.7578125 0.23046875 7.7578125 0.23046875 9.44506836 0.75073242 C12.73066419 1.43226898 15.93925019 1.21883205 19.26953125 1.07421875 C20.76497351 1.02082082 22.26041623 0.96743582 23.75585938 0.9140625 C26.09472166 0.82360791 28.43348382 0.73094284 30.7722168 0.63720703 C33.04198599 0.54821534 35.31194833 0.46724748 37.58203125 0.38671875 C38.60909431 0.34146057 38.60909431 0.34146057 39.65690613 0.29528809 C44.01462891 0.14293143 48.16004412 0.4501521 52.48484802 0.98449707 C56.23031181 1.38981709 59.97400227 1.44500017 63.73828125 1.51171875 C64.55476639 1.53012817 65.37125153 1.5485376 66.21247864 1.56750488 C69.66293821 1.64526637 73.11356153 1.7138756 76.56420898 1.78271484 C79.10148932 1.83469559 81.63861881 1.89181113 84.17578125 1.94921875 C84.94778366 1.96279419 85.71978607 1.97636963 86.5151825 1.99035645 C90.68888307 2.08576911 94.64559122 2.42522158 98.7578125 3.23046875 C98.7578125 4.22046875 98.7578125 5.21046875 98.7578125 6.23046875 C97.73762496 6.068732 96.71743742 5.90699526 95.66633511 5.7403574 C92.13000207 5.27902296 88.78297229 5.09314781 85.22145081 5.07225037 C83.94970505 5.06246155 82.67795929 5.05267273 81.36767578 5.04258728 C79.97631873 5.03668466 78.58496129 5.03087411 77.19360352 5.02514648 C75.71475457 5.01555667 74.2359083 5.00554596 72.75706482 4.99514771 C68.75762409 4.96821204 64.75817171 4.94714141 60.75869107 4.92714572 C56.57331315 4.90521587 52.38797071 4.87786155 48.20262146 4.85108948 C40.28386375 4.80125694 32.36508624 4.75628325 24.44628996 4.71306711 C15.42813793 4.66361387 6.41002153 4.60872583 -2.608096 4.55338752 C-21.15276006 4.43971245 -39.69745778 4.33284212 -58.2421875 4.23046875 C-58.2421875 3.90046875 -58.2421875 3.57046875 -58.2421875 3.23046875 C-57.23407516 3.21833847 -57.23407516 3.21833847 -56.20559692 3.20596313 C-49.2304545 3.12011591 -42.25560281 3.02062172 -35.28076172 2.91308594 C-32.67534251 2.87472793 -30.0698691 2.8398873 -27.46435547 2.80859375 C-23.72603947 2.76309124 -19.98809885 2.70507249 -16.25 2.64453125 C-14.49370773 2.62720444 -14.49370773 2.62720444 -12.70193481 2.60952759 C-11.62096527 2.5896579 -10.53999573 2.56978821 -9.42626953 2.54931641 C-7.99397507 2.5293309 -7.99397507 2.5293309 -6.53274536 2.50894165 C-3.51514603 2.14207921 -3.01401562 0.309803 0 0 Z " fill="#094F57" transform="translate(251.2421875,327.76953125)"/>
<path d="M0 0 C0.66 0 1.32 0 2 0 C0.48968084 5.26122171 -1.90374191 9.67232586 -4.625 14.375 C-5.25535156 15.47908203 -5.25535156 15.47908203 -5.8984375 16.60546875 C-6.92752764 18.4063765 -7.96310756 20.20357318 -9 22 C-9.66 22 -10.32 22 -11 22 C-11.26941406 22.72574219 -11.53882813 23.45148438 -11.81640625 24.19921875 C-12.97830553 26.94866358 -14.33987132 29.29613321 -15.9375 31.8125 C-18.57072583 36.10678272 -20.40943978 40.22831933 -22 45 C-22.66 45 -23.32 45 -24 45 C-24.34804687 45.98226562 -24.34804687 45.98226562 -24.703125 46.984375 C-26.40461996 50.94086327 -28.54978663 54.55307322 -30.75 58.25 C-31.19956055 59.01143311 -31.64912109 59.77286621 -32.11230469 60.55737305 C-34.38846719 64.38743842 -36.71254915 68.14804305 -39.25 71.8125 C-42.14267358 76.01337708 -44.27234998 80.50100296 -46.49609375 85.08203125 C-48.27034249 88.52453466 -50.33781812 91.64349919 -52.54296875 94.8203125 C-54.9410645 98.40781231 -56.9679178 102.1965895 -59 106 C-59.33 106 -59.66 106 -60 106 C-60.32644414 101.83783725 -60.40650982 99.63686538 -58.125 96.0625 C-56 94 -56 94 -54 94 C-53.7525 93.175 -53.505 92.35 -53.25 91.5 C-50.9492265 85.0578342 -47.7194614 79.35894464 -43.953125 73.6640625 C-42.83432795 72.03036861 -42.83432795 72.03036861 -43 70 C-42.00141944 68.99858257 -41.00120264 67.99879591 -40 67 C-38.90734105 65.10145652 -38.90734105 65.10145652 -38 63.0625 C-36.58094029 60.12147166 -35.22693337 57.42938186 -33 55 C-32.34 55 -31.68 55 -31 55 C-30.855625 54.401875 -30.71125 53.80375 -30.5625 53.1875 C-30.1127561 51.43849596 -29.57107659 49.71322977 -29 48 C-28.34 48 -27.68 48 -27 48 C-27 47.34 -27 46.68 -27 46 C-26.34 46 -25.68 46 -25 46 C-24.690625 44.906875 -24.38125 43.81375 -24.0625 42.6875 C-23.41662103 40.44592006 -22.7376883 38.2130649 -22 36 C-21.34 36 -20.68 36 -20 36 C-19.67 34.35 -19.34 32.7 -19 31 C-18.34 31 -17.68 31 -17 31 C-16.67 29.35 -16.34 27.7 -16 26 C-15.34 26 -14.68 26 -14 26 C-14.0825 25.236875 -14.165 24.47375 -14.25 23.6875 C-14.1675 22.800625 -14.085 21.91375 -14 21 C-12.70264493 19.95374591 -11.36733028 18.95298777 -10 18 C-9.64830932 16.67139075 -9.31229724 15.33841672 -9 14 C-8.01 13.67 -7.02 13.34 -6 13 C-6 11.35 -6 9.7 -6 8 C-5.38125 7.79375 -4.7625 7.5875 -4.125 7.375 C-1.15346355 5.45224112 -0.86975341 3.33405473 0 0 Z " fill="#02505B" transform="translate(217,81)"/>
<path d="M0 0 C1.17949219 0.00193359 2.35898438 0.00386719 3.57421875 0.00585938 C4.79753906 0.01810547 6.02085937 0.03035156 7.28125 0.04296875 C8.50457031 0.04361328 9.72789062 0.04425781 10.98828125 0.04492188 C20.87750469 0.0935574 20.87750469 0.0935574 25.78125 1.23046875 C25.78125 1.56046875 25.78125 1.89046875 25.78125 2.23046875 C23.82832031 2.32134766 23.82832031 2.32134766 21.8359375 2.4140625 C20.10936601 2.49851437 18.382804 2.58316001 16.65625 2.66796875 C15.37234375 2.72694336 15.37234375 2.72694336 14.0625 2.78710938 C9.55591677 3.01243854 5.23070035 3.44170255 0.78125 4.23046875 C-0.25 4.18921875 -1.28125 4.14796875 -2.34375 4.10546875 C-5.80896337 4.2561302 -6.68166415 4.9312347 -9.21875 7.23046875 C-10.25 8.03484375 -11.28125 8.83921875 -12.34375 9.66796875 C-15.01682736 12.05049423 -15.80901366 13.12789329 -17.21875 16.23046875 C-17.57195312 16.91367188 -17.92515625 17.596875 -18.2890625 18.30078125 C-18.63710937 18.97882813 -18.98515625 19.656875 -19.34375 20.35546875 C-19.69695312 21.03867188 -20.05015625 21.721875 -20.4140625 22.42578125 C-21.35449624 24.20558263 -21.35449624 24.20558263 -21.21875 26.23046875 C-22.0025 26.93171875 -22.78625 27.63296875 -23.59375 28.35546875 C-26.16630832 31.17303262 -26.61490821 31.97448842 -27.34375 35.48046875 C-27.6325 36.71796875 -27.92125 37.95546875 -28.21875 39.23046875 C-29.70375 39.72546875 -29.70375 39.72546875 -31.21875 40.23046875 C-32.32711423 42.11363034 -32.32711423 42.11363034 -33.21875 44.23046875 C-33.87875 45.22046875 -34.53875 46.21046875 -35.21875 47.23046875 C-35.46875 41.60546875 -35.46875 41.60546875 -33.21875 38.23046875 C-32.55875 38.23046875 -31.89875 38.23046875 -31.21875 38.23046875 C-31.02539062 37.65039062 -30.83203125 37.0703125 -30.6328125 36.47265625 C-29.828125 34.05859375 -29.0234375 31.64453125 -28.21875 29.23046875 C-27.94546875 28.2971875 -27.6721875 27.36390625 -27.390625 26.40234375 C-25.9503852 22.50409469 -24.00087298 19.14427835 -21.84375 15.60546875 C-21.45703125 14.950625 -21.0703125 14.29578125 -20.671875 13.62109375 C-18.52702838 10.06554264 -16.4380068 6.92916487 -13.21875 4.23046875 C-12.55875 4.23046875 -11.89875 4.23046875 -11.21875 4.23046875 C-11.21875 3.57046875 -11.21875 2.91046875 -11.21875 2.23046875 C-7.33134825 0.41577855 -4.2753293 -0.0163695 0 0 Z M-37.21875 47.23046875 C-36.55875 47.56046875 -35.89875 47.89046875 -35.21875 48.23046875 C-36.20875 49.71546875 -36.20875 49.71546875 -37.21875 51.23046875 C-37.87875 50.90046875 -38.53875 50.57046875 -39.21875 50.23046875 C-38.55875 49.24046875 -37.89875 48.25046875 -37.21875 47.23046875 Z " fill="#0ACEDD" transform="translate(246.21875,56.76953125)"/>
<path d="M0 0 C-1.36496335 3.64865204 -3.01092318 6.90299574 -5 10.25 C-5.62132812 11.30316406 -6.24265625 12.35632813 -6.8828125 13.44140625 C-7.97266583 15.27594093 -9.06505497 17.10892735 -10.15917969 18.94091797 C-15.26624446 27.49741897 -20.18730925 36.10193831 -24.79614258 44.93798828 C-28.00658333 51.07612595 -31.43893808 57.05726323 -35 63 C-36.13591405 59.66041268 -35.86125931 57.83461753 -34.625 54.5625 C-33.47597742 51.38301286 -32.5403386 48.35009931 -32 45 C-31.67 45.66 -31.34 46.32 -31 47 C-30.01 46.505 -30.01 46.505 -29 46 C-28.87625 45.236875 -28.7525 44.47375 -28.625 43.6875 C-27.85453512 40.37450101 -26.6014802 39.1284838 -24 37 C-23.34 37 -22.68 37 -22 37 C-21.87625 36.071875 -21.7525 35.14375 -21.625 34.1875 C-21 31 -21 31 -19 28 C-18.61500109 26.34450469 -18.27206865 24.6777567 -18 23 C-17.34 23 -16.68 23 -16 23 C-16 22.34 -16 21.68 -16 21 C-17.32 20.34 -18.64 19.68 -20 19 C-18.35 18.67 -16.7 18.34 -15 18 C-14.896875 16.906875 -14.79375 15.81375 -14.6875 14.6875 C-14.02692273 11.14440371 -13.7972908 10.06756277 -11 8 C-10.34 8.33 -9.68 8.66 -9 9 C-8.34 7.35 -7.68 5.7 -7 4 C-6.34 4 -5.68 4 -5 4 C-5 3.01 -5 2.02 -5 1 C-2 0 -2 0 0 0 Z " fill="#042A41" transform="translate(149,201)"/>
<path d="M0 0 C0.99 0 1.98 0 3 0 C-0.63355784 9.44725039 -5.18356214 18.20965117 -11.16796875 26.35546875 C-14.15175957 30.66256125 -16.6449329 35.23185015 -19.203125 39.80078125 C-20.7566569 42.56674349 -22.36046416 45.28464282 -24 48 C-25.866867 51.13845278 -27.71662835 54.28666258 -29.5625 57.4375 C-30.05685547 58.27087891 -30.55121094 59.10425781 -31.06054688 59.96289062 C-33.55028977 64.22476446 -35.68167146 68.20253224 -37 73 C-37.33 73 -37.66 73 -38 73 C-38 70.36 -38 67.72 -38 65 C-37.34 65 -36.68 65 -36 65 C-35.731875 63.96875 -35.46375 62.9375 -35.1875 61.875 C-34.19001103 58.3514958 -32.7338102 55.23119173 -31 52 C-30.34 52 -29.68 52 -29 52 C-28.67 50.35 -28.34 48.7 -28 47 C-26.515 46.505 -26.515 46.505 -25 46 C-24.87625 45.2575 -24.7525 44.515 -24.625 43.75 C-24.03879534 41.17069951 -23.36715445 39.2517838 -22 37 C-21.01 36.505 -21.01 36.505 -20 36 C-19.60955794 34.68225804 -19.29044914 33.34332728 -19 32 C-18.4740625 30.453125 -18.4740625 30.453125 -17.9375 28.875 C-16.8966598 26.18708882 -16.8966598 26.18708882 -17 24 C-16.38125 23.938125 -15.7625 23.87625 -15.125 23.8125 C-12.72238859 23.171081 -12.72238859 23.171081 -11.75 20.4375 C-11.5025 19.633125 -11.255 18.82875 -11 18 C-10.01 18 -9.02 18 -8 18 C-7.01 14.7 -6.02 11.4 -5 8 C-4.34 8 -3.68 8 -3 8 C-2.814375 7.13375 -2.814375 7.13375 -2.625 6.25 C-1.99351176 3.97664233 -1.11141809 2.0746471 0 0 Z " fill="#31D3D5" transform="translate(197,222)"/>
<path d="M0 0 C0 1.65 0 3.3 0 5 C-1.32 5.33 -2.64 5.66 -4 6 C-4.33 7.65 -4.66 9.3 -5 11 C-6.65 11 -8.3 11 -10 11 C-10 11.66 -10 12.32 -10 13 C-9.34 13.33 -8.68 13.66 -8 14 C-8.66 14 -9.32 14 -10 14 C-10.12375 14.721875 -10.2475 15.44375 -10.375 16.1875 C-10.9904931 18.95721894 -11.88444374 21.3970354 -13 24 C-13.66 24 -14.32 24 -15 24 C-15.12375 24.61875 -15.2475 25.2375 -15.375 25.875 C-16 28 -16 28 -18 30 C-17.95875 28.948125 -17.9175 27.89625 -17.875 26.8125 C-17.99320085 23.20737411 -18.64605244 21.24947413 -20 18 C-19.505 16.515 -19.505 16.515 -19 15 C-18.87367188 14.35417969 -18.74734375 13.70835937 -18.6171875 13.04296875 C-17.87860039 10.59815192 -16.7981015 9.2311562 -15.125 7.3125 C-14.61195313 6.71050781 -14.09890625 6.10851562 -13.5703125 5.48828125 C-12 4 -12 4 -9 3 C-8.01 3.66 -7.02 4.32 -6 5 C-6 4.01 -6 3.02 -6 2 C-2.25 0 -2.25 0 0 0 Z " fill="#0BD8D7" transform="translate(190,235)"/>
<path d="M0 0 C0.226875 0.61875 0.45375 1.2375 0.6875 1.875 C2.39608617 4.64128237 3.99992221 4.90241056 7 6 C8 7 9 8 10 9 C11.90178785 9.60061233 11.90178785 9.60061233 14 10 C16.99142954 11.06836769 18.73736594 11.73736594 21 14 C23.57061311 14.64767793 23.57061311 14.64767793 26 15 C26 15.66 26 16.32 26 17 C26.66 17 27.32 17 28 17 C28.495 17.99 28.495 17.99 29 19 C30.2065625 18.9690625 30.2065625 18.9690625 31.4375 18.9375 C34 19 34 19 35 20 C36.11375 20 37.2275 20 38.375 20 C42 20 42 20 45 21 C45.99 20.34 46.98 19.68 48 19 C47.34 20.65 46.68 22.3 46 24 C40.48931217 24.22042751 36.22907076 23.93248267 31 22 C29.96875 21.9175 28.9375 21.835 27.875 21.75 C15.76321824 19.40578418 3.31038983 10.81040522 -4 1 C-2.68 0.67 -1.36 0.34 0 0 Z " fill="#15C6BA" transform="translate(135,365)"/>
<path d="M0 0 C2.30903272 3.98352209 1.86516528 6.50114053 1 11 C-0.32 10.67 -1.64 10.34 -3 10 C-3.33 10.99 -3.66 11.98 -4 13 C-4.66 13 -5.32 13 -6 13 C-6.89530002 16.42553494 -6.89530002 16.42553494 -6.5 19.875 C-5.75787533 23.02902983 -6.49012756 25.8274604 -7 29 C-7 30.32 -7 31.64 -7 33 C-7 33.66 -7 34.32 -7 35 C-6.01 35.33 -5.02 35.66 -4 36 C-2.6273318 37.97321053 -1.29572383 39.97543152 0 42 C0.5775 42.495 1.155 42.99 1.75 43.5 C3.7015109 45.84181309 3.19510247 48.073463 3 51 C-3.65780681 45.94006682 -8.3271817 40.0184549 -11 32 C-12.28934961 19.10650387 -6.46321837 10.72966869 0 0 Z " fill="#033043" transform="translate(170,274)"/>
<path d="M0 0 C1.14275391 0.52400391 1.14275391 0.52400391 2.30859375 1.05859375 C3.34113281 1.51363281 4.37367188 1.96867187 5.4375 2.4375 C6.44683594 2.88996094 7.45617187 3.34242188 8.49609375 3.80859375 C17.15496652 6.75280355 26.56569393 6.16738199 35.60766602 6.20532227 C37.06710578 6.214918 38.52654286 6.22492903 39.98597717 6.23532104 C43.92331791 6.26219274 47.86067041 6.2832975 51.79805112 6.30332303 C55.92202438 6.32529291 60.0459621 6.35262742 64.16990662 6.37937927 C71.96818338 6.42915819 79.76648003 6.4741515 87.56479543 6.51740164 C96.4475672 6.56690106 105.33030328 6.6217718 114.21304047 6.67708123 C132.47532714 6.79067386 150.73764753 6.89756176 169 7 C169 7.33 169 7.66 169 8 C149.01507211 8.09364976 129.03018906 8.16408004 109.04508686 8.20724869 C99.7646022 8.22782989 90.48425428 8.25586505 81.20385742 8.30175781 C73.11032346 8.34176213 65.01688858 8.36746506 56.92325848 8.37635398 C52.64200038 8.38154583 48.36102562 8.3936547 44.07985878 8.42292023 C40.04067608 8.45030484 36.00189032 8.4583991 31.9626236 8.45243073 C30.48934704 8.45352076 29.0160556 8.46133649 27.54286003 8.4768219 C18.48074805 8.56731203 9.21019681 8.29412677 1 4 C0.15118885 1.86114883 0.15118885 1.86114883 0 0 Z " fill="#52EAE5" transform="translate(172,325)"/>
<path d="M0 0 C0.99 0.33 1.98 0.66 3 1 C3.99 1 4.98 1 6 1 C5.86722656 1.64066406 5.73445313 2.28132813 5.59765625 2.94140625 C4.78111107 6.94068957 4.01454897 10.88542683 3.5 14.9375 C3 18 3 18 1 21 C0.01 21 -0.98 21 -2 21 C-2 21.66 -2 22.32 -2 23 C-2.97648017 24.02297922 -3.98131338 25.01904252 -5 26 C-6.01800576 27.31963709 -7.02248365 28.65009646 -8 30 C-8.99 29.67 -9.98 29.34 -11 29 C-7.55384615 23.21538462 -7.55384615 23.21538462 -4.75 22.125 C-4.1725 22.08375 -3.595 22.0425 -3 22 C-2.67 20.02 -2.34 18.04 -2 16 C-2.33 16.33 -2.66 16.66 -3 17 C-3.66 16.34 -4.32 15.68 -5 15 C-5 13.68 -5 12.36 -5 11 C-4.34 10.67 -3.68 10.34 -3 10 C-2.34786708 7.97536745 -2.34786708 7.97536745 -2 6 C-3.65 6.33 -5.3 6.66 -7 7 C-7.66 5.02 -8.32 3.04 -9 1 C-6 2 -6 2 -5 4 C-4.236875 3.319375 -3.47375 2.63875 -2.6875 1.9375 C-1.800625 1.298125 -0.91375 0.65875 0 0 Z " fill="#2DC677" transform="translate(353,350)"/>
<path d="M0 0 C0.62109375 2.1328125 0.62109375 2.1328125 1 4 C0.39671875 3.66226562 -0.2065625 3.32453125 -0.828125 2.9765625 C-1.62734375 2.53054688 -2.4265625 2.08453125 -3.25 1.625 C-4.03890625 1.18414062 -4.8278125 0.74328125 -5.640625 0.2890625 C-6.41921875 -0.13632812 -7.1978125 -0.56171875 -8 -1 C-8.61230469 -1.37898438 -9.22460938 -1.75796875 -9.85546875 -2.1484375 C-12.95434576 -3.37895697 -15.74284892 -3.26396278 -19.0625 -3.25 C-20.29097656 -3.25515625 -21.51945312 -3.2603125 -22.78515625 -3.265625 C-26.15154667 -3.24874264 -26.15154667 -3.24874264 -29 -1 C-29 -1.66 -29 -2.32 -29 -3 C-29.66 -3 -30.32 -3 -31 -3 C-31.33 -2.34 -31.66 -1.68 -32 -1 C-32.33 -1.66 -32.66 -2.32 -33 -3 C-33.99 -3 -34.98 -3 -36 -3 C-36.99 -1.515 -36.99 -1.515 -38 0 C-38.66 -0.66 -39.32 -1.32 -40 -2 C-42.44012949 -2.24287489 -42.44012949 -2.24287489 -45.125 -2.125 C-46.49011719 -2.09792969 -46.49011719 -2.09792969 -47.8828125 -2.0703125 C-48.58148438 -2.04710937 -49.28015625 -2.02390625 -50 -2 C-50 -2.33 -50 -2.66 -50 -3 C-54.29 -3.33 -58.58 -3.66 -63 -4 C-63 -4.33 -63 -4.66 -63 -5 C-56.34753985 -5.19492228 -49.69477023 -5.37200163 -43.04150391 -5.53710938 C-40.78163078 -5.59524531 -38.52185606 -5.6573559 -36.26220703 -5.72363281 C-33.00050802 -5.81859185 -29.73871393 -5.89890488 -26.4765625 -5.9765625 C-25.47823395 -6.00875885 -24.4799054 -6.0409552 -23.45132446 -6.0741272 C-5.87482583 -6.44335736 -5.87482583 -6.44335736 0 0 Z " fill="#21D1A5" transform="translate(356,338)"/>
<path d="M0 0 C1.17949219 0.00193359 2.35898438 0.00386719 3.57421875 0.00585938 C4.79753906 0.01810547 6.02085937 0.03035156 7.28125 0.04296875 C8.50457031 0.04361328 9.72789062 0.04425781 10.98828125 0.04492188 C20.87750469 0.0935574 20.87750469 0.0935574 25.78125 1.23046875 C25.78125 1.56046875 25.78125 1.89046875 25.78125 2.23046875 C23.82832031 2.32134766 23.82832031 2.32134766 21.8359375 2.4140625 C20.10936601 2.49851437 18.382804 2.58316001 16.65625 2.66796875 C15.37234375 2.72694336 15.37234375 2.72694336 14.0625 2.78710938 C9.55591677 3.01243854 5.23070035 3.44170255 0.78125 4.23046875 C-0.25 4.18921875 -1.28125 4.14796875 -2.34375 4.10546875 C-5.76374183 4.25416405 -6.61916088 5.11830259 -9.21875 7.23046875 C-10.1675 7.43671875 -11.11625 7.64296875 -12.09375 7.85546875 C-16.83366738 9.9410324 -18.68242501 13.85935547 -21.21875 18.23046875 C-21.54875 17.57046875 -21.87875 16.91046875 -22.21875 16.23046875 C-21.28567579 14.79009206 -20.34709923 13.3532789 -19.40625 11.91796875 C-18.88417969 11.11746094 -18.36210937 10.31695312 -17.82421875 9.4921875 C-16.40330769 7.49046607 -15.08950471 5.81420356 -13.21875 4.23046875 C-12.55875 4.23046875 -11.89875 4.23046875 -11.21875 4.23046875 C-11.21875 3.57046875 -11.21875 2.91046875 -11.21875 2.23046875 C-7.33134825 0.41577855 -4.2753293 -0.0163695 0 0 Z " fill="#25BFCE" transform="translate(246.21875,56.76953125)"/>
<path d="M0 0 C1 2 1 2 0.36328125 4.171875 C-1.68257086 9.19143779 -3.88498337 13.53514283 -7 18 C-7.495 19.2375 -7.495 19.2375 -8 20.5 C-9.71063819 24.77659547 -11.8260891 28.1410408 -15.5625 30.875 C-18.97739835 33.85209087 -19.64223655 36.71232595 -21 41 C-21.66 41 -22.32 41 -23 41 C-20.75094262 32.7066009 -16.60388167 26.199594 -12 19 C-10.951467 17.25410539 -9.90912577 15.50446668 -8.875 13.75 C-6.07507974 9.05782594 -3.07558412 4.51521924 0 0 Z " fill="#24D1DF" transform="translate(171,164)"/>
<path d="M0 0 C0.99 0 1.98 0 3 0 C4 4.875 4 4.875 4 6 C18.19 6 32.38 6 47 6 C47.495 6.99 47.495 6.99 48 8 C24.9 8 1.8 8 -22 8 C-22 7.34 -22 6.68 -22 6 C-20.12054688 6.10441406 -20.12054688 6.10441406 -18.203125 6.2109375 C-16.55213698 6.26722118 -14.90109093 6.32182069 -13.25 6.375 C-12.425 6.42527344 -11.6 6.47554688 -10.75 6.52734375 C-8.35884683 6.58519423 -6.32463284 6.57380178 -4 6 C-1.56511696 3.09926731 -1.56511696 3.09926731 0 0 Z " fill="#16C6AB" transform="translate(205,381)"/>
<path d="M0 0 C0.33 1.32 0.66 2.64 1 4 C0.34 4 -0.32 4 -1 4 C-1.19335938 4.60328125 -1.38671875 5.2065625 -1.5859375 5.828125 C-1.84632813 6.62734375 -2.10671875 7.4265625 -2.375 8.25 C-2.75785156 9.43335938 -2.75785156 9.43335938 -3.1484375 10.640625 C-3.95173667 12.86627958 -4.89711662 14.90931672 -6 17 C-6.66 17 -7.32 17 -8 17 C-7.67 19.31 -7.34 21.62 -7 24 C-7.99 24.66 -8.98 25.32 -10 26 C-10 26.99 -10 27.98 -10 29 C-11.9375 29.5625 -11.9375 29.5625 -14 30 C-14.33 29.67 -14.66 29.34 -15 29 C-15.103125 29.639375 -15.20625 30.27875 -15.3125 30.9375 C-15.539375 31.618125 -15.76625 32.29875 -16 33 C-17.485 33.495 -17.485 33.495 -19 34 C-17.60683086 29.19723271 -15.49525532 25.15973075 -12.875 20.9375 C-12.4819165 20.29353271 -12.08883301 19.64956543 -11.68383789 18.98608398 C-10.46172014 16.98707825 -9.23130572 14.99335637 -8 13 C-7.20919422 11.71120812 -6.41881715 10.42215306 -5.62890625 9.1328125 C-3.75929497 6.08439132 -1.8819327 3.04083404 0 0 Z " fill="#1BCFDB" transform="translate(147,205)"/>
<path d="M0 0 C1.21386936 3.64160808 0.6674695 4.33165469 -0.9375 7.6875 C-1.31777344 8.49574219 -1.69804687 9.30398437 -2.08984375 10.13671875 C-2.39019531 10.75160156 -2.69054687 11.36648437 -3 12 C-3.66 12 -4.32 12 -5 12 C-5.10957031 12.61488281 -5.21914062 13.22976562 -5.33203125 13.86328125 C-5.56986328 15.07564453 -5.56986328 15.07564453 -5.8125 16.3125 C-5.96332031 17.11300781 -6.11414063 17.91351563 -6.26953125 18.73828125 C-7.08804656 21.27261476 -8.02930013 22.26174166 -10 24 C-10.515625 24.721875 -11.03125 25.44375 -11.5625 26.1875 C-12.2740625 27.0846875 -12.2740625 27.0846875 -13 28 C-13.66 28 -14.32 28 -15 28 C-15.12375 28.94875 -15.2475 29.8975 -15.375 30.875 C-16 34 -16 34 -18 36 C-18.185625 36.9590625 -18.185625 36.9590625 -18.375 37.9375 C-19.20678668 40.68239603 -20.64219606 41.47883617 -23 43 C-22.05072424 36.5449248 -18.63625156 31.22108805 -15.4375 25.625 C-14.83808594 24.56539062 -14.23867187 23.50578125 -13.62109375 22.4140625 C-13.08613281 21.61742188 -12.55117187 20.82078125 -12 20 C-11.34 20 -10.68 20 -10 20 C-9.690625 18.824375 -9.690625 18.824375 -9.375 17.625 C-7.82192411 13.53052719 -5.74686137 10.07371251 -3.4375 6.3671875 C-2.17257822 4.28419131 -1.05249736 2.19607622 0 0 Z " fill="#23C6CD" transform="translate(218,83)"/>
<path d="M0 0 C1.1659015 3.49770451 0.75567572 4.46222648 -0.375 7.875 C-1.22613769 10.47614042 -1.99360814 12.9668209 -2.51171875 15.65625 C-3.34236089 19.64333229 -5.76819914 22.65229871 -8 26 C-8 25.34 -8 24.68 -8 24 C-9.32 24 -10.64 24 -12 24 C-12 24.66 -12 25.32 -12 26 C-12.66 25.67 -13.32 25.34 -14 25 C-9.38 16.75 -4.76 8.5 0 0 Z " fill="#06CDD8" transform="translate(127,239)"/>
<path d="M0 0 C3.125 0.3125 3.125 0.3125 7 1 C12.81812338 1.85001269 18.44497363 2.14740808 24.3203125 2.1328125 C25.18260468 2.13376923 26.04489685 2.13472595 26.93331909 2.13571167 C28.74346999 2.13638795 30.55362339 2.13457247 32.36376953 2.13037109 C35.12407898 2.12500179 37.88422671 2.13034165 40.64453125 2.13671875 C42.41145869 2.13605813 44.17838603 2.13477729 45.9453125 2.1328125 C46.76419952 2.13483673 47.58308655 2.13686096 48.42678833 2.13894653 C52.74077596 2.12139016 56.7418403 1.77443109 61 1 C63.31775452 1.38629242 64.90136963 1.95068481 67 3 C65.23139025 4.76860975 62.68648868 4.13681505 60.2902832 4.14526367 C59.06843826 4.15164352 57.84659332 4.15802338 56.58772278 4.16459656 C55.242076 4.1661258 53.8964287 4.16723946 52.55078125 4.16796875 C51.17652857 4.17118103 49.80227624 4.17454508 48.42802429 4.17805481 C45.54030567 4.18405494 42.652617 4.18589399 39.76489258 4.18530273 C36.07397003 4.18520147 32.38324141 4.19881227 28.69236469 4.21607494 C25.85010405 4.22722872 23.00788964 4.22922085 20.16560936 4.22869301 C18.80572025 4.22986963 17.44582982 4.23427352 16.0859623 4.24202538 C14.17623011 4.25188565 12.26644119 4.24766747 10.35668945 4.24291992 C9.27160599 4.24434494 8.18652252 4.24576996 7.06855774 4.24723816 C3.77610253 3.98196025 1.07993976 3.16539384 -2 2 C-1.34 1.34 -0.68 0.68 0 0 Z " fill="#012537" transform="translate(180,327)"/>
<path d="M0 0 C3.79472973 0.54449764 5.27031268 2.03792388 7.6875 4.9375 C8.28949219 5.64777344 8.89148438 6.35804687 9.51171875 7.08984375 C12.03762388 10.33175348 12.5 13.0082781 12.5 17.13671875 C11.43568551 23.23158219 7.98469519 28.6473451 5 34 C4.67 34 4.34 34 4 34 C4.33 31.69 4.66 29.38 5 27 C5.66 27 6.32 27 7 27 C6.95875 26.071875 6.9175 25.14375 6.875 24.1875 C7 21 7 21 9 18 C9.17531538 15.54697231 9.17531538 15.54697231 8.875 12.9375 C8.81054688 12.05964844 8.74609375 11.18179688 8.6796875 10.27734375 C8.21798433 7.82373604 8.21798433 7.82373604 5.9453125 6.69140625 C5.30335938 6.46324219 4.66140625 6.23507813 4 6 C4 5.34 4 4.68 4 4 C3.34 4 2.68 4 2 4 C2 3.34 2 2.68 2 2 C1.34 2 0.68 2 0 2 C0 1.34 0 0.68 0 0 Z " fill="#3DD5E0" transform="translate(272,59)"/>
<path d="M0 0 C0.226875 0.61875 0.45375 1.2375 0.6875 1.875 C2.39608617 4.64128237 3.99992221 4.90241056 7 6 C8.6875 7.5625 8.6875 7.5625 10 9 C10.66 9.33 11.32 9.66 12 10 C12 10.66 12 11.32 12 12 C12.99 12.33 13.98 12.66 15 13 C15 13.66 15 14.32 15 15 C15.78375 15.12375 16.5675 15.2475 17.375 15.375 C20 16 20 16 22 18 C24.57061311 18.64767793 24.57061311 18.64767793 27 19 C26.67 19.66 26.34 20.32 26 21 C14.06288984 17.81677063 4.8436422 10.3969936 -4 2 C-2.68 1.34 -1.36 0.68 0 0 Z " fill="#2EC4C7" transform="translate(135,365)"/>
<path d="M0 0 C1.28317892 3.84953676 1.06643637 6.94738135 1 11 C0.34 11 -0.32 11 -1 11 C-0.88496731 13.5216376 -0.75825223 16.0418119 -0.625 18.5625 C-0.5940625 19.26697266 -0.563125 19.97144531 -0.53125 20.69726562 C-0.27149617 25.39448072 0.6492286 29.46997397 2 34 C2 35.32 2 36.64 2 38 C2.66 38 3.32 38 4 38 C5 41 5 41 4.0625 43.1875 C3.711875 43.785625 3.36125 44.38375 3 45 C-1.6118192 31.93034264 -6.66806106 16.82523733 -1.5 3.125 C-1.005 2.09375 -0.51 1.0625 0 0 Z " fill="#3AC0C8" transform="translate(101,287)"/>
<path d="M0 0 C0.66 0 1.32 0 2 0 C0.48968084 5.26122171 -1.90374191 9.67232586 -4.625 14.375 C-5.25535156 15.47908203 -5.25535156 15.47908203 -5.8984375 16.60546875 C-6.92752764 18.4063765 -7.96310756 20.20357318 -9 22 C-9.66 22 -10.32 22 -11 22 C-11.28875 22.763125 -11.5775 23.52625 -11.875 24.3125 C-13 27 -13 27 -15 30 C-15.66 30 -16.32 30 -17 30 C-16.67 28.68 -16.34 27.36 -16 26 C-15.34 26 -14.68 26 -14 26 C-14.0825 25.236875 -14.165 24.47375 -14.25 23.6875 C-14.1675 22.800625 -14.085 21.91375 -14 21 C-12.70264493 19.95374591 -11.36733028 18.95298777 -10 18 C-9.64830932 16.67139075 -9.31229724 15.33841672 -9 14 C-8.01 13.67 -7.02 13.34 -6 13 C-6 11.35 -6 9.7 -6 8 C-5.38125 7.79375 -4.7625 7.5875 -4.125 7.375 C-1.15346355 5.45224112 -0.86975341 3.33405473 0 0 Z " fill="#01424F" transform="translate(217,81)"/>
<path d="M0 0 C0.99 0.33 1.98 0.66 3 1 C2.01 2.1446875 2.01 2.1446875 1 3.3125 C-1.29850538 5.84277939 -1.29850538 5.84277939 -1 9 C-1.99 9.66 -2.98 10.32 -4 11 C-4 11.99 -4 12.98 -4 14 C-6 16 -6 16 -8 18 C-8.69313908 19.65583225 -9.36474424 21.32110979 -10 23 C-10.66 23.33 -11.32 23.66 -12 24 C-12 25.98 -12 27.96 -12 30 C-14.31 30.99 -16.62 31.98 -19 33 C-17.48968284 28.82783427 -15.40433497 25.14879477 -13.0859375 21.38671875 C-12.71143463 20.77230423 -12.33693176 20.15788971 -11.95108032 19.52485657 C-10.76261099 17.57687121 -9.56889988 15.63216072 -8.375 13.6875 C-7.56475496 12.36154145 -6.75485543 11.03537171 -5.9453125 9.70898438 C-3.96753176 6.4701985 -1.98504586 3.23433774 0 0 Z " fill="#01364A" transform="translate(218,193)"/>
<path d="M0 0 C0.92300522 2.58441461 1.19532222 3.58494029 0 6.125 C-0.33 6.74375 -0.66 7.3625 -1 8 C-0.67 8.66 -0.34 9.32 0 10 C-0.391875 10.37125 -0.78375 10.7425 -1.1875 11.125 C-5.24122414 15.31850773 -7.88315972 18.25624997 -9 24 C-11.0625 25.3125 -11.0625 25.3125 -13 26 C-13.33 25.34 -13.66 24.68 -14 24 C-12.06422703 19.5744664 -9.55168007 15.53082011 -7 11.4375 C-4.638762 7.64073663 -2.28882477 3.84093407 0 0 Z " fill="#012D3F" transform="translate(185,248)"/>
<path d="M0 0 C2.30903272 3.98352209 1.86516528 6.50114053 1 11 C-0.32 10.67 -1.64 10.34 -3 10 C-3.33 10.99 -3.66 11.98 -4 13 C-4.66 13 -5.32 13 -6 13 C-6.59732819 15.76264289 -7 18.16032769 -7 21 C-7.66 21.33 -8.32 21.66 -9 22 C-9.46751788 24.35599235 -9.46751788 24.35599235 -9.625 27.0625 C-9.69976562 27.98160156 -9.77453125 28.90070313 -9.8515625 29.84765625 C-9.90054688 30.55792969 -9.94953125 31.26820313 -10 32 C-10.33 32 -10.66 32 -11 32 C-11.88009897 18.92075144 -6.6121748 10.97695312 0 0 Z " fill="#032D3E" transform="translate(170,274)"/>
<path d="M0 0 C0.33 0 0.66 0 1 0 C1.00257813 0.65484375 1.00515625 1.3096875 1.0078125 1.984375 C1.48418873 13.22685407 6.32662627 21.96122752 14 30 C11.61435923 29.42415568 9.33317216 28.77772405 7 28 C6.67 26.02 6.34 24.04 6 22 C5.01 21.67 4.02 21.34 3 21 C2.31867549 19.33927151 1.65257873 17.672233 1 16 C0.01 15.34 -0.98 14.68 -2 14 C-1.34 9.38 -0.68 4.76 0 0 Z " fill="#3BD8D9" transform="translate(158,295)"/>
<path d="M0 0 C0 3.42977708 -0.84108455 5.78079042 -2 9 C-2.28875 9.9075 -2.5775 10.815 -2.875 11.75 C-4.20256499 14.40512998 -5.26020496 14.99540849 -8 16 C-8 17.98 -8 19.96 -8 22 C-8.66 22 -9.32 22 -10 22 C-10.99 24.475 -10.99 24.475 -12 27 C-12.99 26.34 -13.98 25.68 -15 25 C-12.69000257 21.01937546 -10.37658598 17.04074888 -8.0625 13.0625 C-7.40314453 11.92619141 -6.74378906 10.78988281 -6.06445312 9.61914062 C-5.43603516 8.53955078 -4.80761719 7.45996094 -4.16015625 6.34765625 C-3.57886963 5.34742432 -2.99758301 4.34719238 -2.39868164 3.31665039 C-1 1 -1 1 0 0 Z " fill="#023042" transform="translate(258,125)"/>
<path d="M0 0 C0.66 0 1.32 0 2 0 C0.19936379 4.61938917 -1.87501794 9.08565971 -3.9765625 13.57421875 C-5.1295734 15.86831219 -5.1295734 15.86831219 -5 18 C-4.67 18.66 -4.34 19.32 -4 20 C-6.51419515 22.69378051 -8.67240077 24.44805246 -12 26 C-11.54803755 24.39402675 -11.08817673 22.79027492 -10.625 21.1875 C-10.36976563 20.29417969 -10.11453125 19.40085938 -9.8515625 18.48046875 C-9 16 -9 16 -7 13 C-6.34 13 -5.68 13 -5 13 C-5 11.68 -5 10.36 -5 9 C-4.34 9 -3.68 9 -3 9 C-2.87625 8.2575 -2.7525 7.515 -2.625 6.75 C-2.04513299 4.19858515 -1.26291261 2.2732427 0 0 Z M-14 26 C-13.01 26.495 -13.01 26.495 -12 27 C-12.99 27.495 -12.99 27.495 -14 28 C-14 27.34 -14 26.68 -14 26 Z " fill="#0AD0DC" transform="translate(153,196)"/>
<path d="M0 0 C0.99 0 1.98 0 3 0 C0.96086898 5.40040829 -1.90853778 10.12906702 -4.875 15.0625 C-5.66970703 16.40924805 -5.66970703 16.40924805 -6.48046875 17.78320312 C-6.99996094 18.65009766 -7.51945313 19.51699219 -8.0546875 20.41015625 C-8.52374512 21.19527588 -8.99280273 21.98039551 -9.47607422 22.78930664 C-11.10301757 25.14944314 -12.91858041 27.03639133 -15 29 C-14.67 27.02 -14.34 25.04 -14 23 C-13.34 23 -12.68 23 -12 23 C-12 22.01 -12 21.02 -12 20 C-11.34 20 -10.68 20 -10 20 C-10 19.01 -10 18.02 -10 17 C-9.34 17 -8.68 17 -8 17 C-7.67 14.69 -7.34 12.38 -7 10 C-6.34 10 -5.68 10 -5 10 C-4.67 8.68 -4.34 7.36 -4 6 C-3.01 6 -2.02 6 -1 6 C-0.67 4.02 -0.34 2.04 0 0 Z " fill="#38D6DC" transform="translate(215,193)"/>
<path d="M0 0 C0.33 0 0.66 0 1 0 C1.62106622 4.93145119 -0.49026801 7.86161003 -3.1875 11.75 C-4.01515883 12.98554966 -4.84068369 14.22253149 -5.6640625 15.4609375 C-6.0652832 16.06131836 -6.46650391 16.66169922 -6.87988281 17.28027344 C-9.12961149 20.73430326 -11.08096421 24.35479634 -13 28 C-13.33 28 -13.66 28 -14 28 C-14.32644414 23.83783725 -14.40650982 21.63686538 -12.125 18.0625 C-10 16 -10 16 -8 16 C-7.7525 15.175 -7.505 14.35 -7.25 13.5 C-5.51778952 8.64981066 -3.68159669 3.68159669 0 0 Z " fill="#024657" transform="translate(171,159)"/>
<path d="M0 0 C3.125 0.375 3.125 0.375 6 1 C6.495 2.485 6.495 2.485 7 4 C-6.2 4 -19.4 4 -33 4 C-31 2 -31 2 -28.14257812 1.8046875 C-26.95083984 1.82789063 -25.75910156 1.85109375 -24.53125 1.875 C-23.23832031 1.89046875 -21.94539063 1.9059375 -20.61328125 1.921875 C-18.55252126 1.95928072 -16.4918465 2.00016165 -14.43115234 2.04101562 C-12.4438151 2.07708862 -10.45627236 2.10122107 -8.46875 2.125 C-7.27701172 2.14820313 -6.08527344 2.17140625 -4.85742188 2.1953125 C-1.867229 2.30538938 -1.867229 2.30538938 0 0 Z " fill="#32C586" transform="translate(326,385)"/>
<path d="M0 0 C0.33 0.99 0.66 1.98 1 3 C0.01 3 -0.98 3 -2 3 C-2.144375 3.763125 -2.28875 4.52625 -2.4375 5.3125 C-3.27116091 9.29554656 -4.18593167 11.18593167 -7 14 C-7.33 14.99 -7.66 15.98 -8 17 C-8.66 17 -9.32 17 -10 17 C-10.24954005 15.56589632 -10.47392642 14.12739928 -10.6875 12.6875 C-10.81511719 11.88699219 -10.94273437 11.08648437 -11.07421875 10.26171875 C-11 8 -11 8 -9.76953125 6.20703125 C-8 5 -8 5 -4 5 C-3.566875 4.0409375 -3.566875 4.0409375 -3.125 3.0625 C-2 1 -2 1 0 0 Z " fill="#0FE2E6" transform="translate(237,155)"/>
<path d="M0 0 C-0.55602525 3.56782871 -1.68606826 4.92229114 -4.5 7.125 C-7.1880384 9.19887681 -7.1880384 9.19887681 -9 12 C-8.34 12.33 -7.68 12.66 -7 13 C-7.474375 13.45375 -7.94875 13.9075 -8.4375 14.375 C-10.09027808 15.93258204 -10.09027808 15.93258204 -11 18 C-11.66 18 -12.32 18 -13 18 C-13.33 18.66 -13.66 19.32 -14 20 C-13.67 18.02 -13.34 16.04 -13 14 C-12.01 13.67 -11.02 13.34 -10 13 C-9.896875 12.319375 -9.79375 11.63875 -9.6875 10.9375 C-7.64102564 2.19347319 -7.64102564 2.19347319 -3.9375 -0.5 C-2 -1 -2 -1 0 0 Z " fill="#09D4E4" transform="translate(209,110)"/>
<path d="M0 0 C1 2 1 2 0.22265625 4.49609375 C-0.16019531 5.46675781 -0.54304688 6.43742187 -0.9375 7.4375 C-2.58320787 11.59552867 -2.58320787 11.59552867 -3 16 C-3.9590625 16.3403125 -3.9590625 16.3403125 -4.9375 16.6875 C-7.27193661 17.85250896 -7.27193661 17.85250896 -7.75 20.625 C-7.8325 21.40875 -7.915 22.1925 -8 23 C-8.66 22.67 -9.32 22.34 -10 22 C-9.46674529 16.64245655 -7.57420028 12.80035889 -5 8.1875 C-4.44699219 7.1675293 -4.44699219 7.1675293 -3.8828125 6.12695312 C-1.1799794 1.1799794 -1.1799794 1.1799794 0 0 Z " fill="#1EC6D0" transform="translate(112,265)"/>
<path d="M0 0 C0.42410156 0.37511719 0.84820312 0.75023437 1.28515625 1.13671875 C5.36517338 4.69664579 9.5513476 7.91317997 14 11 C12 13 12 13 9.375 13.125 C8.59125 13.08375 7.8075 13.0425 7 13 C6.67 11.35 6.34 9.7 6 8 C5.401875 7.896875 4.80375 7.79375 4.1875 7.6875 C1.64333489 6.88790525 0.5342548 6.18025682 -1 4 C-0.57421875 1.89453125 -0.57421875 1.89453125 0 0 Z " fill="#022130" transform="translate(130,366)"/>
<path d="M0 0 C0.99 0.33 1.98 0.66 3 1 C2.835 2.0725 2.67 3.145 2.5 4.25 C1.91189085 8.03028752 1.91189085 8.03028752 2 12 C2 12.66 2 13.32 2 14 C2.99 14.33 3.98 14.66 5 15 C4.01 16.485 4.01 16.485 3 18 C0.08296259 15.66982219 -0.92420049 14.56953943 -1.42578125 10.80078125 C-1.38839844 9.64964844 -1.35101563 8.49851562 -1.3125 7.3125 C-1.28800781 6.15363281 -1.26351562 4.99476563 -1.23828125 3.80078125 C-1 1 -1 1 0 0 Z " fill="#022A3E" transform="translate(161,295)"/>
<path d="M0 0 C1.65 0.33 3.3 0.66 5 1 C5.25 7.625 5.25 7.625 3 11 C2.34 11 1.68 11 1 11 C0.67 10.34 0.34 9.68 0 9 C-2.52733235 8.34444881 -2.52733235 8.34444881 -5 8 C-4.0409375 7.13375 -4.0409375 7.13375 -3.0625 6.25 C-1.01776132 4.01937599 -0.41794801 2.92563609 0 0 Z " fill="#1CE0E7" transform="translate(250,123)"/>
<path d="M0 0 C0.33 0.66 0.66 1.32 1 2 C-0.40895236 4.61788643 -1.86243091 7.11045672 -3.4375 9.625 C-3.87126953 10.33140625 -4.30503906 11.0378125 -4.75195312 11.765625 C-5.82748132 13.51483568 -6.91283725 15.25799654 -8 17 C-10.0078125 13.3125 -10.0078125 13.3125 -9.9375 10.5 C-8.68884835 7.17026226 -6.8575693 6.0601081 -4 4 C-2.64852862 2.68505488 -1.30887458 1.35735142 0 0 Z " fill="#2FDDE4" transform="translate(228,173)"/>
<path d="M0 0 C3.2797199 2.99452687 3.92552744 5.1361183 4.3125 9.625 C4.28455766 14.63599317 2.27027507 18.62161236 0 23 C-1.08382145 19.71090297 -0.85717526 17.63941146 0 14.3125 C1.13831777 9.20524762 0.83006984 5.14643301 0 0 Z " fill="#55CF9F" transform="translate(357,342)"/>
<path d="M0 0 C1.1796875 1.671875 1.1796875 1.671875 2 4 C0.8828125 6.578125 0.8828125 6.578125 -0.875 9.25 C-1.73738281 10.58804688 -1.73738281 10.58804688 -2.6171875 11.953125 C-3.30167969 12.96632812 -3.30167969 12.96632812 -4 14 C-4.66 13.34 -5.32 12.68 -6 12 C-5.78809434 7.70483535 -4.98735515 3.95831529 -1.875 0.9375 C-0.946875 0.4734375 -0.946875 0.4734375 0 0 Z " fill="#30DEE6" transform="translate(250,132)"/>
<path d="M0 0 C2.01156146 2.2062287 2.3624683 3.29133864 2.9375 6.125 C2.33421875 5.78726562 1.7309375 5.44953125 1.109375 5.1015625 C0.31015625 4.65554688 -0.4890625 4.20953125 -1.3125 3.75 C-2.10140625 3.30914062 -2.8903125 2.86828125 -3.703125 2.4140625 C-4.48171875 1.98867188 -5.2603125 1.56328125 -6.0625 1.125 C-6.7121875 0.75375 -7.361875 0.3825 -8.03125 0 C-10.4939982 -1.06087615 -12.64464919 -1.2893802 -15.3125 -1.5 C-16.20453125 -1.57476562 -17.0965625 -1.64953125 -18.015625 -1.7265625 C-19.02882813 -1.80003906 -19.02882813 -1.80003906 -20.0625 -1.875 C-20.0625 -2.205 -20.0625 -2.535 -20.0625 -2.875 C-12.96151009 -4.41869346 -6.28489524 -3.84789504 0 0 Z " fill="#50D5B2" transform="translate(354.0625,335.875)"/>
<path d="M0 0 C0.81766395 2.45299186 1.02627816 3.87189398 0.5 6.4375 C-0.05526792 9.2832481 0.28409249 11.21591523 1 14 C-1.31 14.66 -3.62 15.32 -6 16 C-5.745504 14.51793505 -5.47088238 13.03931385 -5.1875 11.5625 C-5.03667969 10.73878906 -4.88585937 9.91507813 -4.73046875 9.06640625 C-4.48941406 8.38449219 -4.24835938 7.70257813 -4 7 C-3.01 6.67 -2.02 6.34 -1 6 C-0.67 4.02 -0.34 2.04 0 0 Z " fill="#07D2DB" transform="translate(132,232)"/>
<path d="M0 0 C0.33 1.32 0.66 2.64 1 4 C0.34 4 -0.32 4 -1 4 C-1.19335938 4.60328125 -1.38671875 5.2065625 -1.5859375 5.828125 C-1.84632813 6.62734375 -2.10671875 7.4265625 -2.375 8.25 C-2.63023437 9.03890625 -2.88546875 9.8278125 -3.1484375 10.640625 C-3.95173667 12.86627958 -4.89711662 14.90931672 -6 17 C-6.66 17 -7.32 17 -8 17 C-8 17.66 -8 18.32 -8 19 C-9.62626404 20.38232443 -11.2925002 21.71937515 -13 23 C-11.73294681 19.63584449 -10.28886807 16.62968211 -8.3984375 13.57421875 C-7.90859375 12.77822266 -7.41875 11.98222656 -6.9140625 11.16210938 C-6.40617188 10.34548828 -5.89828125 9.52886719 -5.375 8.6875 C-4.859375 7.85154297 -4.34375 7.01558594 -3.8125 6.15429688 C-2.54512996 4.10068801 -1.27421427 2.04936659 0 0 Z " fill="#37CEDD" transform="translate(147,205)"/>
<path d="M0 0 C4.4850623 2.63253657 6.20268114 4.20714972 8 9 C9.64639965 10.35827971 11.31295807 11.69254251 13 13 C13.68268138 14.32520503 14.3507041 15.65812182 15 17 C17.03317007 18.73425773 17.03317007 18.73425773 19 20 C18.34 20.66 17.68 21.32 17 22 C15.09902064 19.98380977 13.20425294 17.9623188 11.3125 15.9375 C10.51682617 15.09541992 10.51682617 15.09541992 9.70507812 14.23632812 C0 3.81676572 0 3.81676572 0 0 Z " fill="#4ECED7" transform="translate(113,344)"/>
<path d="M0 0 C2.82928932 2.55071314 4.67893264 5.46621272 6.6875 8.6875 C7.31011719 9.68136719 7.93273437 10.67523438 8.57421875 11.69921875 C9.04472656 12.45847656 9.51523438 13.21773438 10 14 C9.01 14.495 9.01 14.495 8 15 C7.34 14.67 6.68 14.34 6 14 C6 13.34 6 12.68 6 12 C5.01 12 4.02 12 3 12 C2.49440092 10.56445975 1.9957251 9.1264798 1.5 7.6875 C1.2215625 6.88699219 0.943125 6.08648437 0.65625 5.26171875 C0 3 0 3 0 0 Z " fill="#022334" transform="translate(105,334)"/>
<path d="M0 0 C0.33 0 0.66 0 1 0 C1.12117188 1.2065625 1.24234375 2.413125 1.3671875 3.65625 C1.53615881 5.27086471 1.70544656 6.88544632 1.875 8.5 C1.95363281 9.29148437 2.03226562 10.08296875 2.11328125 10.8984375 C2.66655089 16.09066024 3.6248235 20.96153821 5 26 C4.34 26 3.68 26 3 26 C2.26587749 23.79763246 1.53256906 21.5950663 0.8046875 19.390625 C0.15381425 17.45696272 -0.54138629 15.53825702 -1.25 13.625 C-2 11 -2 11 -1 8 C-1 6.80375 -1 5.6075 -1 4.375 C-1 1 -1 1 0 0 Z " fill="#032B3B" transform="translate(97,299)"/>
<path d="M0 0 C1.17266191 3.51798573 0.73410958 4.60797979 -0.375 8.0625 C-0.65085937 8.94035156 -0.92671875 9.81820312 -1.2109375 10.72265625 C-2 13 -2 13 -3 15 C-3.66 14.67 -4.32 14.34 -5 14 C-5.33 14.99 -5.66 15.98 -6 17 C-6.99 17.33 -7.98 17.66 -9 18 C-7.45614871 13.85967154 -5.48971062 10.06446947 -3.375 6.1875 C-3.05015625 5.59001953 -2.7253125 4.99253906 -2.390625 4.37695312 C-1.59620849 2.91662865 -0.79844624 1.45812509 0 0 Z " fill="#2ECDDD" transform="translate(127,239)"/>
<path d="M0 0 C0.6875 1.75 0.6875 1.75 1 4 C0.00692179 5.33849671 -0.99357052 6.67151309 -2 8 C-2.25124826 10.66761764 -2.25124826 10.66761764 -2 13 C-2.5775 13.185625 -3.155 13.37125 -3.75 13.5625 C-7.10427843 15.70551122 -8.17907996 18.48822563 -10 22 C-10.66 22 -11.32 22 -12 22 C-10.48828156 17.78765956 -8.38311713 14.21807 -6 10.4375 C-2.78355412 5.3388853 -2.78355412 5.3388853 0 0 Z " fill="#023C4E" transform="translate(239,157)"/>
<path d="M0 0 C0.66 0.33 1.32 0.66 2 1 C2 3.97 2 6.94 2 10 C1.01 10.33 0.02 10.66 -1 11 C-1.33 10.01 -1.66 9.02 -2 8 C-3.32 8.99 -4.64 9.98 -6 11 C-4.54955729 6.89041233 -2.48889248 3.56741255 0 0 Z " fill="#023446" transform="translate(193,236)"/>
<path d="M0 0 C-0.33 0.99 -0.66 1.98 -1 3 C-1.66 2.67 -2.32 2.34 -3 2 C-2.67 2.99 -2.34 3.98 -2 5 C-2.66 5 -3.32 5 -4 5 C-4 6.32 -4 7.64 -4 9 C-5.32 8.34 -6.64 7.68 -8 7 C-7.75 4.125 -7.75 4.125 -7 1 C-4.1587258 -1.17831022 -3.46754708 -1.15584903 0 0 Z " fill="#0FD9DD" transform="translate(211,201)"/>
<path d="M0 0 C2.02065128 3.23304205 2.32952974 6.27928934 2.71484375 10.02734375 C3.07888366 12.54570201 3.92366631 14.70382146 5 17 C4.01 17.66 3.02 18.32 2 19 C-1.54929577 7.31690141 -1.54929577 7.31690141 -1 1 C-0.67 0.67 -0.34 0.34 0 0 Z " fill="#0CC6C9" transform="translate(101,306)"/>
<path d="M0 0 C0.99 0.33 1.98 0.66 3 1 C2.01 2.1446875 2.01 2.1446875 1 3.3125 C-1.29850538 5.84277939 -1.29850538 5.84277939 -1 9 C-1.99 9.66 -2.98 10.32 -4 11 C-4 11.99 -4 12.98 -4 14 C-6.5 16.6875 -6.5 16.6875 -9 19 C-9.66 18.67 -10.32 18.34 -11 18 C-7.37 12.06 -3.74 6.12 0 0 Z " fill="#024659" transform="translate(218,193)"/>
<path d="M0 0 C-1.42749981 3.79049707 -3.16236542 7.27122456 -5.125 10.8125 C-5.93324219 12.27623047 -5.93324219 12.27623047 -6.7578125 13.76953125 C-7.37269531 14.87361328 -7.37269531 14.87361328 -8 16 C-8.33 16 -8.66 16 -9 16 C-9 14.35 -9 12.7 -9 11 C-8.34 11 -7.68 11 -7 11 C-6.34 7.7 -5.68 4.4 -5 1 C-2 0 -2 0 0 0 Z " fill="#04384B" transform="translate(149,201)"/>
<path d="M0 0 C0.99 0 1.98 0 3 0 C2.34 1.65 1.68 3.3 1 5 C0.01 5 -0.98 5 -2 5 C-2 5.66 -2 6.32 -2 7 C-2.97648017 8.02297922 -3.98131338 9.01904252 -5 10 C-6.01800576 11.31963709 -7.02248365 12.65009646 -8 14 C-8.99 13.67 -9.98 13.34 -11 13 C-7.52356021 7.16454749 -7.52356021 7.16454749 -4.8125 6.3125 C-4.214375 6.209375 -3.61625 6.10625 -3 6 C-2.67 5.01 -2.34 4.02 -2 3 C-1.34 3 -0.68 3 0 3 C0 2.01 0 1.02 0 0 Z " fill="#41CB87" transform="translate(353,366)"/>
<path d="M0 0 C0.99 0.33 1.98 0.66 3 1 C3.66666667 3 4.33333333 5 5 7 C4.01 7.99 3.02 8.98 2 10 C-1 8 -1 8 -1.8125 6.125 C-2.04398726 3.50147776 -1.34771696 2.21976911 0 0 Z M2 5 C1.67 5.99 1.34 6.98 1 8 C1.66 8 2.32 8 3 8 C2.67 7.01 2.34 6.02 2 5 Z " fill="#29CA86" transform="translate(314,346)"/>
<path d="M0 0 C0.33 0.66 0.66 1.32 1 2 C-0.14453125 4.171875 -0.14453125 4.171875 -1.8125 6.75 C-4.11076276 10.42935337 -5.88673549 13.76959487 -7 18 C-7.33 18 -7.66 18 -8 18 C-8 15.36 -8 12.72 -8 10 C-7.34 10 -6.68 10 -6 10 C-5.7525 8.906875 -5.505 7.81375 -5.25 6.6875 C-3.97997149 2.94091591 -3.34243648 1.89404734 0 0 Z " fill="#3ED6D5" transform="translate(167,277)"/>
<path d="M0 0 C0 3 0 3 -2 5.1875 C-2.66 5.785625 -3.32 6.38375 -4 7 C-4.99 6.67 -5.98 6.34 -7 6 C-7.99 6 -8.98 6 -10 6 C-3.71428571 0.42857143 -3.71428571 0.42857143 0 0 Z M-7 7 C-6.67 7.66 -6.34 8.32 -6 9 C-6.66 8.67 -7.32 8.34 -8 8 C-7.67 7.67 -7.34 7.34 -7 7 Z " fill="#06201E" transform="translate(352,378)"/>
<path d="M0 0 C1.86595779 3.58838037 3.53384702 7.22989233 5 11 C4.67 11.66 4.34 12.32 4 13 C2.82767315 11.3790787 1.6622923 9.75313167 0.5 8.125 C-0.1496875 7.22007812 -0.799375 6.31515625 -1.46875 5.3828125 C-3 3 -3 3 -3 1 C-2.01 0.67 -1.02 0.34 0 0 Z " fill="#37C7CD" transform="translate(108,331)"/>
<path d="M0 0 C1.14275391 0.52400391 1.14275391 0.52400391 2.30859375 1.05859375 C8.68073495 3.86679081 14.0383041 5.65191521 21 6 C17.74125429 8.17249714 16.81730739 8.15867438 13.11328125 7.4765625 C3.75222084 5.36556551 3.75222084 5.36556551 1 4 C0.2109375 1.89453125 0.2109375 1.89453125 0 0 Z " fill="#44D5DA" transform="translate(172,325)"/>
<path d="M0 0 C5.94 0 11.88 0 18 0 C18 0.66 18 1.32 18 2 C16.89591797 1.98259766 16.89591797 1.98259766 15.76953125 1.96484375 C14.79371094 1.95582031 13.81789063 1.94679687 12.8125 1.9375 C11.84957031 1.92589844 10.88664062 1.91429687 9.89453125 1.90234375 C7.14423487 1.99513378 4.67520409 2.37888315 2 3 C2 2.34 2 1.68 2 1 C1.34 0.67 0.68 0.34 0 0 Z " fill="#0EDDEC" transform="translate(254,59)"/>
<path d="M0 0 C1.09045549 4.36182198 0.90898166 4.42065938 -1 8 C-0.67 8.66 -0.34 9.32 0 10 C-2.375 11.5625 -2.375 11.5625 -5 13 C-5.66 12.67 -6.32 12.34 -7 12 C-4.69 8.04 -2.38 4.08 0 0 Z " fill="#033B4A" transform="translate(185,248)"/>
<path d="M0 0 C1.32 0.66 2.64 1.32 4 2 C1.69 6.29 -0.62 10.58 -3 15 C-4.21660575 10.133577 -3.26803431 9.27437236 -1 5 C-0.30092586 2.26427415 -0.30092586 2.26427415 0 0 Z " fill="#033C52" transform="translate(131,224)"/>
<path d="M0 0 C0.33 1.32 0.66 2.64 1 4 C0.34 4 -0.32 4 -1 4 C-1.12375 5.134375 -1.2475 6.26875 -1.375 7.4375 C-1.58125 8.613125 -1.7875 9.78875 -2 11 C-2.99 11.495 -2.99 11.495 -4 12 C-4.99 11.01 -5.98 10.02 -7 9 C-2.85714286 2.57142857 -2.85714286 2.57142857 0 0 Z " fill="#0FDDE5" transform="translate(278,82)"/>
<path d="M0 0 C0.66 0 1.32 0 2 0 C2 1.32 2 2.64 2 4 C1.01 4 0.02 4 -1 4 C-1.10183594 4.56203125 -1.20367187 5.1240625 -1.30859375 5.703125 C-2.13648111 8.45339488 -3.43198618 10.39095874 -5.0625 12.75 C-5.61035156 13.54921875 -6.15820312 14.3484375 -6.72265625 15.171875 C-7.14417969 15.77515625 -7.56570312 16.3784375 -8 17 C-8 12.90540797 -6.03072724 10.23249165 -4 6.8125 C-3.6184375 6.15830078 -3.236875 5.50410156 -2.84375 4.83007812 C-1.90161068 3.21666455 -0.95155734 1.60787702 0 0 Z " fill="#29CBCE" transform="translate(193,126)"/>
<path d="M0 0 C3.125 0.3125 3.125 0.3125 7 1 C8.47805871 1.19604269 9.95725484 1.38371373 11.4375 1.5625 C12.613125 1.706875 13.78875 1.85125 15 2 C13 4 13 4 11.046875 4.265625 C6.30239064 4.2333496 2.45942638 3.82950826 -2 2 C-1.34 1.34 -0.68 0.68 0 0 Z " fill="#032E46" transform="translate(180,327)"/>
<path d="M0 0 C0.99 0.33 1.98 0.66 3 1 C2.01 2.485 2.01 2.485 1 4 C1.99 4.33 2.98 4.66 4 5 C2.02 5.99 2.02 5.99 0 7 C0 8.32 0 9.64 0 11 C-0.99 11 -1.98 11 -3 11 C-2.32829194 7.1936543 -1.27253436 3.64793184 0 0 Z " fill="#08CCD3" transform="translate(112,267)"/>
<path d="M0 0 C1.25955231 3.77865693 0.48087189 5.03411786 -0.9375 8.6875 C-1.31777344 9.68136719 -1.69804688 10.67523438 -2.08984375 11.69921875 C-2.39019531 12.45847656 -2.69054687 13.21773438 -3 14 C-3.66 14 -4.32 14 -5 14 C-5.75 11.8125 -5.75 11.8125 -6 9 C-4.0625 6.3125 -4.0625 6.3125 -2 4 C-2 3.34 -2 2.68 -2 2 C-1.34 2 -0.68 2 0 2 C0 1.34 0 0.68 0 0 Z " fill="#012B3A" transform="translate(102,281)"/>
<path d="M0 0 C3.63 1.32 7.26 2.64 11 4 C7.76674728 6.15550181 6.68800782 6 3 6 C2.67 5.34 2.34 4.68 2 4 C1.01 3.34 0.02 2.68 -1 2 C-0.67 1.34 -0.34 0.68 0 0 Z " fill="#032434" transform="translate(155,384)"/>
<path d="M0 0 C0.66 0 1.32 0 2 0 C2 0.66 2 1.32 2 2 C3.175625 2.185625 3.175625 2.185625 4.375 2.375 C7 3 7 3 9 5 C11.57061311 5.64767793 11.57061311 5.64767793 14 6 C13.67 6.66 13.34 7.32 13 8 C7.547001 6.43181728 3.23513217 4.96189783 -1 1 C-0.67 0.67 -0.34 0.34 0 0 Z " fill="#42C2C1" transform="translate(148,378)"/>
<path d="M0 0 C0.97582031 0.10183594 1.95164062 0.20367187 2.95703125 0.30859375 C3.69308594 0.39238281 4.42914063 0.47617187 5.1875 0.5625 C5.1875 1.5525 5.1875 2.5425 5.1875 3.5625 C-0.0925 2.9025 -5.3725 2.2425 -10.8125 1.5625 C-10.8125 1.2325 -10.8125 0.9025 -10.8125 0.5625 C-7.01982808 -0.3735342 -3.87575435 -0.42026252 0 0 Z " fill="#032B2E" transform="translate(344.8125,330.4375)"/>
<path d="M0 0 C0.66 0 1.32 0 2 0 C2.33 0.99 2.66 1.98 3 3 C1.22445479 6.48986471 -0.24152313 9.24152313 -3 12 C-2.88541307 10.56163249 -2.75790884 9.12429034 -2.625 7.6875 C-2.55539063 6.88699219 -2.48578125 6.08648437 -2.4140625 5.26171875 C-2 3 -2 3 0 0 Z " fill="#33D0DA" transform="translate(243,144)"/>
<path d="M0 0 C3.465 1.98 3.465 1.98 7 4 C7 5.65 7 7.3 7 9 C1.21538462 5.67692308 1.21538462 5.67692308 0.125 2.25 C0.08375 1.5075 0.0425 0.765 0 0 Z " fill="#0FC9CE" transform="translate(112,339)"/>
<path d="M0 0 C0.33 0.99 0.66 1.98 1 3 C-1.31 4.98 -3.62 6.96 -6 9 C-6.33 8.01 -6.66 7.02 -7 6 C-6.67 5.34 -6.34 4.68 -6 4 C-5.34 4 -4.68 4 -4 4 C-3.67 3.01 -3.34 2.02 -3 1 C-2.01 0.67 -1.02 0.34 0 0 Z " fill="#0CE3EC" transform="translate(271,95)"/>
<path d="M0 0 C0.66 0 1.32 0 2 0 C0.76067171 3.43198603 -0.50301511 6.30325632 -3 9 C-3.99 9 -4.98 9 -6 9 C-4.52307692 4.32307692 -4.52307692 4.32307692 -1.875 2.6875 C-1.25625 2.460625 -0.6375 2.23375 0 2 C0 1.34 0 0.68 0 0 Z " fill="#60D39C" transform="translate(351,371)"/>
<path d="M0 0 C0.99 0.33 1.98 0.66 3 1 C2.6875 4.375 2.6875 4.375 2 8 C1.01 8.66 0.02 9.32 -1 10 C-1.02689216 8.52093108 -1.04634621 7.04172517 -1.0625 5.5625 C-1.07410156 4.73878906 -1.08570313 3.91507812 -1.09765625 3.06640625 C-1 1 -1 1 0 0 Z " fill="#032235" transform="translate(161,295)"/>
<path d="M0 0 C0.33 0.66 0.66 1.32 1 2 C-0.60197696 6.24523895 -2.39508372 10.26251142 -5 14 C-5.66 14 -6.32 14 -7 14 C-5.53967505 8.68972746 -3.01679014 4.53669968 0 0 Z " fill="#3BC9D8" transform="translate(112,265)"/>
<path d="M0 0 C5.75 0.875 5.75 0.875 8 2 C8 2.66 8 3.32 8 4 C8.66 4.33 9.32 4.66 10 5 C9.01 5.33 8.02 5.66 7 6 C5.17578125 5.0390625 5.17578125 5.0390625 3.3125 3.625 C2.68988281 3.16351563 2.06726563 2.70203125 1.42578125 2.2265625 C0.95527344 1.82179688 0.48476562 1.41703125 0 1 C0 0.67 0 0.34 0 0 Z " fill="#3CCBCF" transform="translate(139,373)"/>
<path d="M0 0 C4.29 0 8.58 0 13 0 C10.77810176 2.22189824 8.91517292 2.92598892 6 4 C6 3.34 6 2.68 6 2 C5.34 2 4.68 2 4 2 C3.67 2.66 3.34 3.32 3 4 C2.01 2.68 1.02 1.36 0 0 Z " fill="#26D099" transform="translate(321,333)"/>
<path d="M0 0 C7.57142857 2.85714286 7.57142857 2.85714286 10 7 C6.44017986 7 4.09207186 6.85805646 1.25 4.625 C0 3 0 3 0 0 Z " fill="#0AC6BF" transform="translate(147,374)"/>
<path d="M0 0 C0.33 0 0.66 0 1 0 C0.63495936 5.66442374 -0.0554321 10.00703705 -3 15 C-3.98120464 11.94736336 -3.98120464 10.05263664 -3 7 C-2.34 7 -1.68 7 -1 7 C-0.67 4.69 -0.34 2.38 0 0 Z " fill="#66D1A3" transform="translate(360,350)"/>
<path d="M0 0 C3.875 4.75 3.875 4.75 5 7 C4.01 7 3.02 7 2 7 C2 6.34 2 5.68 2 5 C0.35 5.33 -1.3 5.66 -3 6 C-3 3 -3 3 -1.5 1.3125 C-0.7575 0.6628125 -0.7575 0.6628125 0 0 Z " fill="#032535" transform="translate(115,348)"/>
<path d="M0 0 C0.66 0.33 1.32 0.66 2 1 C1.2575 1.886875 0.515 2.77375 -0.25 3.6875 C-2.53640616 6.4298846 -4.77951375 9.20383213 -7 12 C-5.88679459 6.11591428 -4.90112053 3.64442296 0 0 Z " fill="#014751" transform="translate(231,61)"/>
<path d="M0 0 C3.25666272 0.56149357 4.95623323 1.37229986 7 4 C7.6875 6.1875 7.6875 6.1875 8 8 C6.68 7.34 5.36 6.68 4 6 C4 5.34 4 4.68 4 4 C3.34 4 2.68 4 2 4 C2 3.34 2 2.68 2 2 C1.34 2 0.68 2 0 2 C0 1.34 0 0.68 0 0 Z " fill="#31D8E3" transform="translate(272,59)"/>
<path d="M0 0 C1.875 0.25 1.875 0.25 4 1 C4.70151152 2.3153341 5.36525925 3.65117592 6 5 C8.03317007 6.73425773 8.03317007 6.73425773 10 8 C9.34 8.66 8.68 9.32 8 10 C6.66370254 8.52351062 5.33103329 7.0437367 4 5.5625 C3.2575 4.73878906 2.515 3.91507812 1.75 3.06640625 C0 1 0 1 0 0 Z " fill="#43C1C8" transform="translate(122,356)"/>
<path d="M0 0 C0.66 0.33 1.32 0.66 2 1 C1.50168276 4.68754757 0.89932357 6.60490662 -2 9 C-2.99 8.67 -3.98 8.34 -5 8 C-4.34 8 -3.68 8 -3 8 C-2.87625 6.865625 -2.7525 5.73125 -2.625 4.5625 C-2.41875 3.386875 -2.2125 2.21125 -2 1 C-1.34 0.67 -0.68 0.34 0 0 Z " fill="#34CC7D" transform="translate(338,344)"/>
<path d="M0 0 C0.66 0.33 1.32 0.66 2 1 C2 1.99 2 2.98 2 4 C1.01 4.495 1.01 4.495 0 5 C-0.46751788 7.35599235 -0.46751788 7.35599235 -0.625 10.0625 C-0.69976562 10.98160156 -0.77453125 11.90070313 -0.8515625 12.84765625 C-0.90054688 13.55792969 -0.94953125 14.26820313 -1 15 C-1.33 15 -1.66 15 -2 15 C-2.05429959 13.25034642 -2.09292823 11.50020213 -2.125 9.75 C-2.15980469 8.28820312 -2.15980469 8.28820312 -2.1953125 6.796875 C-1.99862781 3.9803502 -1.44568916 2.39050964 0 0 Z " fill="#064F5A" transform="translate(161,291)"/>
<path d="M0 0 C-0.33 1.32 -0.66 2.64 -1 4 C-2.65 4 -4.3 4 -6 4 C-6 3.34 -6 2.68 -6 2 C-6.66 1.67 -7.32 1.34 -8 1 C-5.10765685 0.17361624 -3.11257569 0 0 0 Z " fill="#0EE2E7" transform="translate(265,108)"/>
<path d="M0 0 C2.125 0.9375 2.125 0.9375 4 2 C1.82575883 4.50037734 0.26954202 5.43628586 -3 6 C-2.625 3.5625 -2.625 3.5625 -2 1 C-1.34 0.67 -0.68 0.34 0 0 Z " fill="#28CE83" transform="translate(338,335)"/>
<path d="M0 0 C1.125 3.75 1.125 3.75 0 6 C-0.66 6 -1.32 6 -2 6 C-2 7.32 -2 8.64 -2 10 C-2.99 10 -3.98 10 -5 10 C-3.66511872 6.40608886 -2.03977277 3.24509304 0 0 Z " fill="#053B47" transform="translate(166,281)"/>
<path d="M0 0 C0.33 0.66 0.66 1.32 1 2 C-1.36292656 4.52588702 -2.66462511 5.88820837 -6 7 C-5.8125 5.1875 -5.8125 5.1875 -5 3 C-2.4375 1.25 -2.4375 1.25 0 0 Z " fill="#4FC991" transform="translate(339,383)"/>
<path d="M0 0 C1.32 0 2.64 0 4 0 C4 0.66 4 1.32 4 2 C4.66 2.33 5.32 2.66 6 3 C5 4 5 4 2.4375 4.0625 C1.2309375 4.0315625 1.2309375 4.0315625 0 4 C0 2.68 0 1.36 0 0 Z " fill="#17C9C3" transform="translate(157,380)"/>
<path d="M0 0 C1.60080151 4.00200378 0.29279692 7.04556236 -1 11 C-1.66 10.67 -2.32 10.34 -3 10 C-3 8.68 -3 7.36 -3 6 C-2.34 6 -1.68 6 -1 6 C-0.67 4.02 -0.34 2.04 0 0 Z " fill="#0BCBD5" transform="translate(132,232)"/>
<path d="M0 0 C0.99 0.33 1.98 0.66 3 1 C1.88820837 4.33537489 0.52588702 5.63707344 -2 8 C-2.33 7.34 -2.66 6.68 -3 6 C-2.06553465 3.96855359 -1.06775224 1.96466413 0 0 Z " fill="#01374B" transform="translate(198,226)"/>
<path d="M0 0 C0.33 0 0.66 0 1 0 C1.3125 2.3125 1.3125 2.3125 1 5 C-1.5 6.8125 -1.5 6.8125 -4 8 C-3.4021799 4.65220745 -2.20964398 2.57791798 0 0 Z " fill="#003E4C" transform="translate(171,159)"/>
<path d="M0 0 C0.99 0.33 1.98 0.66 3 1 C1.1875 3.5 1.1875 3.5 -1 6 C-1.99 6 -2.98 6 -4 6 C-2.25 1.125 -2.25 1.125 0 0 Z " fill="#1BCDDB" transform="translate(225,74)"/>
<path d="M0 0 C3 0 3 0 5 1 C2.525 5.455 2.525 5.455 0 10 C-1.231394 6.30581799 -0.64432764 3.7943739 0 0 Z " fill="#04394B" transform="translate(106,267)"/>
<path d="M0 0 C0.99 0.33 1.98 0.66 3 1 C2.01 2.1446875 2.01 2.1446875 1 3.3125 C-1.29850538 5.84277939 -1.29850538 5.84277939 -1 9 C-1.99 9.33 -2.98 9.66 -4 10 C-3.43454163 6.04179141 -2.19097652 3.3340947 0 0 Z " fill="#02394D" transform="translate(218,193)"/>
<path d="M0 0 C0.74342169 2.78783135 1 5.12277417 1 8 C-0.65 8.33 -2.3 8.66 -4 9 C-2.80100302 5.9168649 -1.52299523 2.93720508 0 0 Z " fill="#032E3D" transform="translate(269,104)"/>
<path d="M0 0 C0.66 1.65 1.32 3.3 2 5 C0.68 5.33 -0.64 5.66 -2 6 C-2 5.01 -2 4.02 -2 3 C-2.99 2.67 -3.98 2.34 -5 2 C-2 0 -2 0 0 0 Z " fill="#06CCB1" transform="translate(203,370)"/>
<path d="M0 0 C0.66 0 1.32 0 2 0 C1.67 1.65 1.34 3.3 1 5 C0.34 4.67 -0.32 4.34 -1 4 C-1.99 5.485 -1.99 5.485 -3 7 C-3.66 6.67 -4.32 6.34 -5 6 C-3.38405168 3.95880212 -1.7143618 1.95927063 0 0 Z " fill="#062D42" transform="translate(125,238)"/>
<path d="M0 0 C0.99 0.33 1.98 0.66 3 1 C1.68 3.31 0.36 5.62 -1 8 C-1.66 7.01 -2.32 6.02 -3 5 C-2.01 3.35 -1.02 1.7 0 0 Z " fill="#034052" transform="translate(154,187)"/>
<path d="M0 0 C0.33 0 0.66 0 1 0 C1 1.98 1 3.96 1 6 C0.01 6 -0.98 6 -2 6 C-2 6.66 -2 7.32 -2 8 C-2.66 7.67 -3.32 7.34 -4 7 C-2.68 4.69 -1.36 2.38 0 0 Z " fill="#37CADA" transform="translate(117,257)"/>
<path d="M0 0 C-1.2491742 3.45925163 -2.67527795 6.14693203 -5 9 C-4.4140625 2.84765625 -4.4140625 2.84765625 -4 1 C-2 0 -2 0 0 0 Z " fill="#033B50" transform="translate(118,255)"/>
<path d="M0 0 C0.75 1.6875 0.75 1.6875 1 4 C-0.9375 6.75 -0.9375 6.75 -3 9 C-3.26218749 5.85375007 -3.24754367 4.38162983 -1.5 1.6875 C-1.005 1.130625 -0.51 0.57375 0 0 Z " fill="#033B52" transform="translate(124,241)"/>
<path d="M0 0 C2.1387261 3.20808915 2.47730962 4.27698497 2 8 C1.01 8.66 0.02 9.32 -1 10 C-0.7215625 8.824375 -0.7215625 8.824375 -0.4375 7.625 C0.25962266 5.02910225 0.25962266 5.02910225 -1 3 C-0.67 2.01 -0.34 1.02 0 0 Z " fill="#0ED9EA" transform="translate(280,69)"/>
</svg>
